<svg width="30" height="30" viewBox="0 0 30 30" fill="none" xmlns="http://www.w3.org/2000/svg">
<path d="M14.7636 20.6047H8.2112L6.87793 24.7461C6.85979 24.8216 6.81586 24.8885 6.75372 24.9351C6.69157 24.9817 6.61511 25.0052 6.53751 25.0015H3.2187C3.02958 25.0015 2.96335 24.8974 3.02017 24.6893L8.69334 8.35076C8.75 8.18064 8.80681 7.98689 8.86347 7.76936C8.9378 7.39078 8.97578 7.00626 8.97694 6.62058C8.97308 6.59361 8.97555 6.5661 8.98416 6.54024C8.99277 6.51438 9.00728 6.49089 9.02654 6.47161C9.04581 6.45233 9.06929 6.4378 9.09514 6.42917C9.12099 6.42054 9.1485 6.41804 9.17548 6.42188H13.6857C13.8178 6.42188 13.8935 6.46929 13.9126 6.56393L20.3515 24.7177C20.4084 24.907 20.3515 25.0016 20.1814 25.0015H16.4938C16.4304 25.0085 16.3667 24.9922 16.3145 24.9557C16.2623 24.9191 16.2252 24.8648 16.2102 24.8029L14.7636 20.6047ZM9.2323 17.0307H13.7141L13.6502 16.8198L13.5476 16.4858L13.4744 16.2513L13.3576 15.882L13.1094 15.1045L12.891 14.4152L12.324 12.6198C12.1829 12.1735 12.0474 11.7254 11.9177 11.2756L11.8139 10.9106L11.6927 10.479L11.5077 9.81006L11.473 9.68403H11.4448C11.3029 10.3649 11.13 11.0389 10.9268 11.7041L10.5059 13.0578L10.2744 13.8057L10.0407 14.5629C9.99837 14.6997 9.95641 14.8349 9.91429 14.9686L9.78876 15.3646L9.66389 15.7515L9.53968 16.1287L9.41613 16.4966C9.37517 16.6176 9.33421 16.7371 9.29341 16.855L9.2323 17.0307ZM24.1806 9.42868C23.8913 9.44029 23.6028 9.39071 23.3339 9.28318C23.0651 9.17565 22.822 9.01259 22.6205 8.80466C22.4196 8.5877 22.2635 8.33317 22.1612 8.05569C22.059 7.77821 22.0126 7.48325 22.0247 7.18779C22.0144 6.89528 22.066 6.6039 22.1759 6.33267C22.2859 6.06143 22.4519 5.81644 22.663 5.61369C23.0701 5.22283 23.6124 5.0041 24.1768 5.00305L24.2372 5.00371C24.9181 5.00371 25.4524 5.20687 25.84 5.61353C26.0357 5.82482 26.1878 6.07262 26.2875 6.34275C26.3873 6.61289 26.4328 6.90004 26.4215 7.18779C26.4333 7.48443 26.3855 7.78044 26.2807 8.05822C26.176 8.33601 26.0164 8.5899 25.8116 8.80482C25.6049 9.00864 25.3594 9.16903 25.0897 9.27654C24.82 9.38405 24.5315 9.43651 24.2412 9.43083L24.1806 9.42868ZM22.2233 24.7177V11.159C22.2233 10.9889 22.2986 10.9037 22.4502 10.9037H25.9393C26.0904 10.9037 26.1661 10.9887 26.1663 11.159V24.7177C26.1663 24.907 26.0906 25.0016 25.9393 25.0015H22.4786C22.3174 25.0015 22.2325 24.9166 22.2241 24.7468L22.2233 24.7177Z" fill="white"/>
</svg>
