<svg width="50" height="50" viewBox="0 0 50 50" fill="none" xmlns="http://www.w3.org/2000/svg">
<g clip-path="url(#clip0_260_6)">
<path d="M50 0H0V50H50V0Z" fill="#00FFD1" fill-opacity="0.25"/>
<path d="M40 30.5733L36.465 34.1083L31.1783 28.8217L28.8217 31.1783L34.1083 36.465L30.5733 40H40V30.5733ZM10 19.4267L13.535 15.8917L18.8217 21.1783L21.1783 18.8217L15.8917 13.535L19.4267 10H10V19.4267ZM40 10H30.5733L34.1083 13.535L28.8217 18.8217L31.1783 21.1783L36.465 15.8917L40 19.4267V10ZM10 40H19.4267L15.8917 36.465L21.1783 31.1783L18.8217 28.8217L13.535 34.1083L10 30.5733V40Z" fill="#00FFD1"/>
</g>
<defs>
<clipPath id="clip0_260_6">
<rect width="50" height="50" fill="white"/>
</clipPath>
</defs>
</svg>
