<svg width="30" height="30" viewBox="0 0 30 30" fill="none" xmlns="http://www.w3.org/2000/svg">
<path d="M10.6923 2.5C9.71305 2.5 8.7739 2.89509 8.08145 3.59835C7.38901 4.30161 7 5.25544 7 6.25C7 7.24456 7.38901 8.19839 8.08145 8.90165C8.7739 9.60491 9.71305 10 10.6923 10H19.3077C20.287 10 21.2261 9.60491 21.9185 8.90165C22.611 8.19839 23 7.24456 23 6.25C23 5.25544 22.611 4.30161 21.9185 3.59835C21.2261 2.89509 20.287 2.5 19.3077 2.5H10.6923ZM19.3077 11.25C18.3284 11.25 17.3893 11.6451 16.6968 12.3483C16.0044 13.0516 15.6154 14.0054 15.6154 15C15.6154 15.9946 16.0044 16.9484 16.6968 17.6516C17.3893 18.3549 18.3284 18.75 19.3077 18.75C20.287 18.75 21.2261 18.3549 21.9185 17.6516C22.611 16.9484 23 15.9946 23 15C23 14.0054 22.611 13.0516 21.9185 12.3483C21.2261 11.6451 20.287 11.25 19.3077 11.25ZM7 15C7 14.0054 7.38901 13.0516 8.08145 12.3483C8.7739 11.6451 9.71305 11.25 10.6923 11.25H14.3846V18.75H10.6923C9.71305 18.75 8.7739 18.3549 8.08145 17.6516C7.38901 16.9484 7 15.9946 7 15ZM10.6923 20C9.96204 20 9.24817 20.2199 8.64097 20.632C8.03378 21.044 7.56052 21.6297 7.28106 22.3149C7.0016 23.0002 6.92848 23.7542 7.07095 24.4816C7.21342 25.209 7.56507 25.8772 8.08145 26.4016C8.59783 26.9261 9.25574 27.2832 9.97198 27.4279C10.6882 27.5726 11.4306 27.4984 12.1053 27.2145C12.78 26.9307 13.3566 26.4501 13.7623 25.8334C14.1681 25.2167 14.3846 24.4917 14.3846 23.75V20H10.6923Z" fill="white"/>
</svg>
