<svg width="35" height="35" viewBox="0 0 35 35" fill="none" xmlns="http://www.w3.org/2000/svg">
<path d="M27.4224 6.075L29.0415 4.16C27.4774 2.8465 25.6942 1.81392 23.7722 1.10875L22.9117 3.45625C24.5573 4.06178 26.0838 4.94882 27.4224 6.075ZM32.5203 15L35 14.4837C34.6513 12.4867 33.9528 10.5656 32.9361 8.8075L30.7551 10C31.6257 11.555 32.2226 13.2459 32.5203 15ZM22.9117 31.5438L23.7722 33.8913C25.6941 33.1865 27.4773 32.1543 29.0415 30.8413L27.4224 28.9263C26.0838 30.0524 24.5573 30.9382 22.9117 31.5438ZM30.7551 25L32.9361 26.25C33.9532 24.4716 34.6515 22.5315 35 20.5163L32.5203 20.0825C32.2224 21.8104 31.6251 23.4742 30.7551 25ZM17.6399 35V0C12.9615 0 8.47471 1.84374 5.1666 5.12563C1.85848 8.40752 0 12.8587 0 17.5C0 22.1413 1.85848 26.5925 5.1666 29.8744C8.47471 33.1563 12.9615 35 17.6399 35Z" fill="#0096FF"/>
</svg>
