<svg width="35" height="35" viewBox="0 0 35 35" fill="none" xmlns="http://www.w3.org/2000/svg">
<path d="M17.5 0C19.1064 0 20.6559 0.205078 22.1484 0.615234C23.641 1.02539 25.0309 1.61784 26.3184 2.39258C27.6058 3.16732 28.785 4.07878 29.856 5.12695C30.9269 6.17513 31.8441 7.35433 32.6074 8.66455C33.3708 9.97477 33.9575 11.3704 34.3677 12.8516C34.7778 14.3327 34.9886 15.8822 35 17.5C35 19.1064 34.7949 20.6559 34.3848 22.1484C33.9746 23.641 33.3822 25.0309 32.6074 26.3184C31.8327 27.6058 30.9212 28.785 29.873 29.856C28.8249 30.9269 27.6457 31.8441 26.3354 32.6074C25.0252 33.3708 23.6296 33.9575 22.1484 34.3677C20.6673 34.7778 19.1178 34.9886 17.5 35C15.8936 35 14.3441 34.7949 12.8516 34.3848C11.359 33.9746 9.96908 33.3822 8.68164 32.6074C7.39421 31.8327 6.21501 30.9212 5.14404 29.873C4.07308 28.8249 3.15592 27.6457 2.39258 26.3354C1.62923 25.0252 1.04248 23.6296 0.632324 22.1484C0.222168 20.6673 0.0113932 19.1178 0 17.5C0 15.8936 0.205078 14.3441 0.615234 12.8516C1.02539 11.359 1.61784 9.96908 2.39258 8.68164C3.16732 7.39421 4.07878 6.21501 5.12695 5.14404C6.17513 4.07308 7.35433 3.15592 8.66455 2.39258C9.97477 1.62923 11.3704 1.04248 12.8516 0.632324C14.3327 0.222168 15.8822 0.0113932 17.5 0ZM27.8052 11.7065L25.481 9.38232L14.2188 20.6445L9.51904 15.9448L7.19482 18.269L14.2188 25.293L27.8052 11.7065Z" fill="#00FF96"/>
</svg>
