<svg width="50" height="50" viewBox="0 0 50 50" fill="none" xmlns="http://www.w3.org/2000/svg">
<rect width="50" height="50" fill="#EB00FF" fill-opacity="0.25"/>
<path d="M15.4167 13.3333C14.2667 13.3333 13.3333 14.2667 13.3333 15.4167V34.5833C13.3333 35.7333 14.2667 36.6667 15.4167 36.6667H34.5833C35.7333 36.6667 36.6667 35.7333 36.6667 34.5833V28.3333C36.6667 27.8913 36.8423 27.4674 37.1548 27.1548C37.4674 26.8423 37.8913 26.6667 38.3333 26.6667C38.7754 26.6667 39.1993 26.8423 39.5118 27.1548C39.8244 27.4674 40 27.8913 40 28.3333V34.5833C40 36.0199 39.4293 37.3977 38.4135 38.4135C37.3977 39.4293 36.0199 40 34.5833 40H15.4167C13.9801 40 12.6023 39.4293 11.5865 38.4135C10.5707 37.3977 10 36.0199 10 34.5833V15.4167C10 13.9801 10.5707 12.6023 11.5865 11.5865C12.6023 10.5707 13.9801 10 15.4167 10H21.6667C22.1087 10 22.5326 10.1756 22.8452 10.4882C23.1577 10.8007 23.3333 11.2246 23.3333 11.6667C23.3333 12.1087 23.1577 12.5326 22.8452 12.8452C22.5326 13.1577 22.1087 13.3333 21.6667 13.3333H15.4167ZM28.3333 13.3333C27.8913 13.3333 27.4674 13.1577 27.1548 12.8452C26.8423 12.5326 26.6667 12.1087 26.6667 11.6667C26.6667 11.2246 26.8423 10.8007 27.1548 10.4882C27.4674 10.1756 27.8913 10 28.3333 10H38.3333C38.7754 10 39.1993 10.1756 39.5118 10.4882C39.8244 10.8007 40 11.2246 40 11.6667V21.6667C40 22.1087 39.8244 22.5326 39.5118 22.8452C39.1993 23.1577 38.7754 23.3333 38.3333 23.3333C37.8913 23.3333 37.4674 23.1577 37.1548 22.8452C36.8423 22.5326 36.6667 22.1087 36.6667 21.6667V15.69L29.5117 22.845C29.1973 23.1486 28.7763 23.3166 28.3393 23.3128C27.9023 23.309 27.4843 23.1337 27.1753 22.8247C26.8663 22.5157 26.691 22.0977 26.6872 21.6607C26.6834 21.2237 26.8514 20.8027 27.155 20.4883L34.31 13.3333H28.3333Z" fill="#EB00FF"/>
</svg>
