<svg width="25" height="25" viewBox="0 0 25 25" fill="none" xmlns="http://www.w3.org/2000/svg">
<path d="M23.7011 11.345L19.085 3.17836C18.8876 2.81925 18.5986 2.52045 18.2483 2.31318C17.898 2.10591 17.4992 1.99776 17.0935 2.00004H7.90738C7.50174 1.99776 7.10294 2.10591 6.75263 2.31318C6.40232 2.52045 6.11335 2.81925 5.91589 3.17836L4.15463 6.29335L3.23372 7.91501L1.29979 11.345C1.10446 11.6978 1.00143 12.0954 1.00049 12.5C0.999925 12.9048 1.10305 13.3027 1.29979 13.655L3.23372 17.085L4.15463 18.7066L5.91589 21.8216C6.11335 22.1807 6.40232 22.4795 6.75263 22.6868C7.10294 22.8941 7.50174 23.0022 7.90738 23H17.0935C17.4992 23.0022 17.898 22.8941 18.2483 22.6868C18.5986 22.4795 18.8876 22.1807 19.085 21.8216L23.7011 13.655C23.8979 13.3027 24.001 12.9048 24.0004 12.5C24.0036 12.0949 23.9003 11.6963 23.7011 11.345V11.345ZM18.6545 18.3146L18.6614 18.31L18.6568 18.3181L18.6545 18.3146ZM22.0435 12.5L18.6648 18.303C18.529 18.3146 18.3955 18.3333 18.2562 18.3333C16.7505 18.3323 15.3052 17.7327 14.2311 16.6633C13.157 15.5939 12.5397 14.1401 12.512 12.6143V12.4767C12.5047 10.934 11.8952 9.45698 10.8167 8.36832C9.73821 7.27967 8.27839 6.6679 6.75623 6.66669C6.63675 6.672 6.51764 6.68368 6.39937 6.70169L7.78075 4.33336H17.2892L22.055 12.5H22.0435Z" fill="rgb(235, 0, 255)"/>
</svg>
