<svg width="30" height="30" viewBox="0 0 30 30" fill="none" xmlns="http://www.w3.org/2000/svg">
<path d="M2.5 2.5H27.5V27.5H2.5V2.5ZM25.4514 21.5375C25.2694 20.3972 24.5264 19.4389 22.3236 18.5444C21.5569 18.1847 20.7056 17.9361 20.45 17.3583C20.3556 17.0139 20.3417 16.8278 20.4028 16.6236C20.5597 15.9514 21.3569 15.75 21.9819 15.9361C22.3889 16.0611 22.7639 16.3736 22.9986 16.875C24.075 16.1708 24.075 16.1708 24.8264 15.7028C24.5444 15.2667 24.4042 15.0764 24.2167 14.8889C23.5597 14.1556 22.6847 13.7806 21.2639 13.8125L20.5306 13.9056C19.8264 14.0778 19.1542 14.4542 18.7486 14.9528C17.5611 16.2972 17.9042 18.6403 19.3417 19.6111C20.7625 20.6736 22.8431 20.9069 23.1083 21.9069C23.3583 23.1264 22.2028 23.5167 21.0597 23.3764C20.2167 23.1875 19.7472 22.7667 19.2319 21.9847L17.3264 23.0792C17.5444 23.5778 17.7944 23.7972 18.1694 24.2347C19.9819 26.0625 24.5139 25.9694 25.3264 23.1875C25.3556 23.0944 25.5764 22.4542 25.4042 21.4694L25.4514 21.5375ZM16.0944 13.9903H13.7528C13.7528 16.0083 13.7431 18.0153 13.7431 20.0375C13.7431 21.3208 13.8083 22.4986 13.5986 22.8611C13.2556 23.5792 12.3681 23.4875 11.9667 23.3597C11.5542 23.1569 11.3444 22.875 11.1014 22.4694C11.0361 22.3611 10.9875 22.2667 10.9694 22.2667L9.06944 23.4389C9.3875 24.0958 9.85139 24.6597 10.45 25.0181C11.3403 25.55 12.5361 25.7222 13.7889 25.4417C14.6056 25.2056 15.3097 24.7208 15.675 23.9708C16.2083 23.0028 16.0944 21.8139 16.0903 20.4861C16.1014 18.3458 16.0903 16.2042 16.0903 14.0486L16.0944 13.9903Z" fill="#00FFD1"/>
</svg>
