<svg width="25" height="25" viewBox="0 0 25 25" fill="none" xmlns="http://www.w3.org/2000/svg">
<path fill-rule="evenodd" clip-rule="evenodd" d="M8.66671 12.5H5.76872C5.48744 12.9872 5.05326 13.368 4.53351 13.5832C4.01377 13.7985 3.43752 13.8363 2.89412 13.6907C2.35073 13.5451 1.87056 13.2243 1.5281 12.7779C1.18563 12.3316 1 11.7848 1 11.2222C1 10.6597 1.18563 10.1128 1.5281 9.6665C1.87056 9.22019 2.35073 8.89935 2.89412 8.75375C3.43752 8.60814 4.01377 8.64591 4.53351 8.8612C5.05326 9.07648 5.48744 9.45725 5.76872 9.94444H8.66671V3.55556C8.66671 2.87778 8.93595 2.22776 9.41521 1.7485C9.89447 1.26925 10.5445 1 11.2223 1H21.4445C22.1222 1 22.7722 1.26925 23.2515 1.7485C23.7308 2.22776 24 2.87778 24 3.55556V21.4444C24 22.1222 23.7308 22.7722 23.2515 23.2515C22.7722 23.7308 22.1222 24 21.4445 24H11.2223C10.5445 24 9.89447 23.7308 9.41521 23.2515C8.93595 22.7722 8.66671 22.1222 8.66671 21.4444V12.5ZM11.2223 12.5V21.4444H21.4445V3.55556H11.2223V9.94444H14.1202C14.4015 9.45725 14.8357 9.07648 15.3555 8.8612C15.8752 8.64591 16.4514 8.60814 16.9948 8.75375C17.5382 8.89935 18.0184 9.22019 18.3609 9.6665C18.7033 10.1128 18.889 10.6597 18.889 11.2222C18.889 11.7848 18.7033 12.3316 18.3609 12.7779C18.0184 13.2243 17.5382 13.5451 16.9948 13.6907C16.4514 13.8363 15.8752 13.7985 15.3555 13.5832C14.8357 13.368 14.4015 12.9872 14.1202 12.5H11.2223Z" fill="rgb(235, 0, 255)"/>
</svg>
