<svg width="30" height="30" viewBox="0 0 30 30" fill="none" xmlns="http://www.w3.org/2000/svg">
<path d="M17.5087 15.003C17.5087 15.6964 17.2439 16.3614 16.7724 16.8518C16.3009 17.3423 15.6613 17.6179 14.9944 17.6182C14.3272 17.6182 13.6874 17.3427 13.2156 16.8523C12.7439 16.3618 12.4789 15.6966 12.4789 15.003C12.4789 14.3097 12.7437 13.6447 13.2153 13.1542C13.6868 12.6638 14.3263 12.3882 14.9933 12.3879C15.6604 12.3879 16.3002 12.6634 16.772 13.1538C17.2437 13.6443 17.5087 14.3095 17.5087 15.003ZM20.4878 2.50024C18.9735 2.50024 16.9924 3.62304 14.9887 5.56688C12.9862 3.63356 11.004 2.52363 9.49088 2.52363C9.02963 2.52363 8.61 2.6324 8.24663 2.84877C6.69975 3.77625 6.35325 6.66628 7.152 10.2931C3.7275 11.3926 1.5 13.1504 1.5 15.003C1.5 16.8627 3.73875 18.6252 7.17338 19.7165C6.38138 23.3574 6.73463 26.2521 8.28488 27.1784C8.64488 27.3971 9.06112 27.5 9.52462 27.5C11.0377 27.5 13.02 26.3772 15.0236 24.431C17.0261 26.3655 19.0084 27.4754 20.5215 27.4754C20.9828 27.4754 21.4024 27.3702 21.7657 27.1538C23.3115 26.2275 23.6591 23.3375 22.8604 19.7094C26.2725 18.6194 28.5 16.858 28.5 15.003C28.5 13.1434 26.2613 11.3809 22.8266 10.2873C23.6186 6.64991 23.2654 3.75286 21.7151 2.82538C21.3404 2.60627 20.9177 2.4941 20.4878 2.50024ZM20.4821 3.77508V3.7821C20.7352 3.7821 20.9389 3.83356 21.1099 3.93063C21.8591 4.37741 22.1842 6.07681 21.9311 8.26276C21.8704 8.80076 21.7714 9.36801 21.6499 9.94695C20.4995 9.65758 19.3318 9.44892 18.1545 9.3224C17.4534 8.31657 16.6886 7.36046 15.8651 6.46044C17.6561 4.72946 19.338 3.77976 20.4833 3.77625L20.4821 3.77508ZM9.49088 3.79847C10.6294 3.79847 12.3191 4.74349 14.1146 6.46511C13.3429 7.30721 12.5734 8.26276 11.8421 9.32123C10.6621 9.44628 9.49193 9.65653 8.34 9.95046C8.21922 9.40194 8.12386 8.8477 8.05425 8.28966C7.7955 6.10488 8.115 4.40665 8.8575 3.95403C9.07125 3.84876 9.3075 3.80432 9.49088 3.79847ZM14.9831 7.36569C15.495 7.91305 16.0069 8.52591 16.5131 9.19491C16.0181 9.17152 15.5119 9.15515 15 9.15515C14.4825 9.15515 13.9706 9.16684 13.47 9.19491C13.965 8.52591 14.4769 7.91422 14.9831 7.36569ZM15 10.437C15.8325 10.437 16.6616 10.4768 17.4772 10.5458C17.934 11.2265 18.3795 11.9528 18.8081 12.7212C19.2266 13.4697 19.6069 14.23 19.9534 14.9972C19.6069 15.7633 19.2266 16.5293 18.8138 17.2779C18.3863 18.0498 17.9441 18.7843 17.4863 19.465C15.835 19.6152 14.1743 19.6172 12.5228 19.4708C12.0504 18.7651 11.6064 18.0393 11.1919 17.2954C10.7734 16.5469 10.3931 15.7867 10.0466 15.0194C10.3943 14.2407 10.7745 13.4782 11.1862 12.7341C11.6137 11.9621 12.0559 11.23 12.5137 10.5493C13.3405 10.4733 14.17 10.4351 15 10.4347V10.437ZM10.9106 10.7341C10.6406 11.175 10.3706 11.6265 10.1186 12.0908C9.8655 12.5469 9.62925 13.0054 9.40425 13.4639C9.10613 12.6966 8.853 11.9317 8.64375 11.1867C9.36375 11.0113 10.1231 10.8545 10.9106 10.7341ZM19.0781 10.7341C19.86 10.8545 20.6138 11.0031 21.3349 11.1867C21.1324 11.9259 20.8793 12.6861 20.5924 13.4475C20.1333 12.5165 19.6283 11.6108 19.0793 10.7341H19.0781ZM22.524 11.5235C23.0685 11.699 23.586 11.8943 24.0709 12.106C26.0194 12.9715 27.2794 14.1036 27.2794 15.0019C27.2738 15.9001 26.0138 17.0369 24.0653 17.8966C23.5928 18.1071 23.0752 18.2966 22.5409 18.4732C22.203 17.2842 21.7896 16.1199 21.3034 14.9878C21.8096 13.7984 22.2146 12.637 22.524 11.5212V11.5235ZM7.45463 11.5282C7.76738 12.651 8.18025 13.8171 8.69213 15.0136C8.20945 16.1389 7.80125 17.2971 7.47038 18.4802C6.92588 18.3048 6.40838 18.1083 5.92913 17.8954C3.98063 17.0334 2.72063 15.9001 2.72063 15.0019C2.72063 14.1036 3.98063 12.9645 5.92913 12.106C6.40163 11.8955 6.91913 11.706 7.45463 11.5282ZM20.5924 16.534C20.8905 17.3024 21.1436 18.0685 21.3529 18.8124C20.6329 18.996 19.8724 19.1515 19.0849 19.2685C19.6332 18.3849 20.1356 17.4722 20.5924 16.534ZM9.40425 16.5574C9.62925 17.0159 9.8655 17.4732 10.1242 17.9317C10.383 18.3878 10.6474 18.8346 10.9174 19.2685C10.1588 19.1544 9.40575 19.0038 8.66062 18.817C8.86312 18.0802 9.11738 17.3176 9.40313 16.5562L9.40425 16.5574ZM21.66 20.0509C21.786 20.6276 21.885 21.1831 21.9457 21.7153C22.2045 23.9 21.885 25.5983 21.1425 26.0521C20.9771 26.1573 20.7622 26.2018 20.5091 26.2018C19.3706 26.2018 17.6809 25.2579 15.8854 23.5351C16.6571 22.693 17.4266 21.7387 18.1579 20.6814C19.4033 20.5433 20.5811 20.3316 21.66 20.0509ZM8.35125 20.0626C9.43125 20.3363 10.608 20.548 11.8466 20.6849C12.5891 21.7433 13.3598 22.7047 14.136 23.5457C12.3416 25.2801 10.6575 26.2298 9.51225 26.2298C9.2959 26.2316 9.08238 26.1786 8.89012 26.0755C8.14087 25.631 7.81575 23.9304 8.06888 21.7445C8.12963 21.2065 8.22975 20.6404 8.35125 20.0626ZM13.4812 20.8112C13.9762 20.8346 14.4825 20.8509 14.9944 20.8509C15.5119 20.8509 16.0237 20.8392 16.5244 20.8112C16.0294 21.4802 15.5175 22.0919 15.0113 22.6416C14.4994 22.0919 13.9875 21.4802 13.4812 20.8112Z" fill="#00FFD1"/>
</svg>
