<svg width="25" height="25" viewBox="0 0 25 25" fill="none" xmlns="http://www.w3.org/2000/svg">
<path d="M13.2192 5.23372C14.1594 4.18213 15.7809 3.88146 17.6927 4.08597C19.4666 4.27523 21.2908 4.8842 22.563 5.44892V20.5939C21.2434 20.0597 19.5342 19.5378 17.8379 19.3577C16.2653 19.1882 14.5633 19.2981 13.2192 20.1086V5.23372ZM12.5005 3.85398C11.0846 2.56125 9.0318 2.36894 7.16305 2.56735C4.98668 2.80087 2.79018 3.59299 1.42168 4.25386C1.29611 4.3145 1.18963 4.41221 1.11494 4.53535C1.04026 4.65849 1.00053 4.80185 1.00049 4.94831V21.7371C1.00052 21.8648 1.03073 21.9904 1.08834 22.1025C1.14596 22.2146 1.22914 22.3095 1.33027 22.3786C1.43139 22.4477 1.54723 22.4887 1.66718 22.498C1.78712 22.5072 1.90733 22.4844 2.0168 22.4315C3.28468 21.821 5.32736 21.0869 7.3068 20.8748C9.33224 20.658 11.0299 21.0075 11.9399 22.2133C12.0072 22.3024 12.0926 22.3743 12.1896 22.4238C12.2866 22.4732 12.3929 22.4989 12.5005 22.4989C12.6081 22.4989 12.7144 22.4732 12.8114 22.4238C12.9084 22.3743 12.9938 22.3024 13.0611 22.2133C13.9711 21.0075 15.6687 20.658 17.6927 20.8748C19.6736 21.0869 21.7177 21.821 22.9842 22.4315C23.0936 22.4844 23.2139 22.5072 23.3338 22.498C23.4537 22.4887 23.5696 22.4477 23.6707 22.3786C23.7718 22.3095 23.855 22.2146 23.9126 22.1025C23.9702 21.9904 24.0005 21.8648 24.0005 21.7371V4.94831C24.0005 4.80185 23.9607 4.65849 23.886 4.53535C23.8113 4.41221 23.7049 4.3145 23.5793 4.25386C22.2108 3.59299 20.0143 2.80087 17.8379 2.56735C15.9692 2.36741 13.9164 2.56125 12.5005 3.85398Z" fill="rgb(235, 0, 255)"/>
</svg>
