<svg width="735" height="1520" viewBox="0 0 735 1520" fill="none" xmlns="http://www.w3.org/2000/svg">
<g clip-path="url(#clip0_116_5)">
<path d="M104.958 1515.05L318 1146.05L531.042 1515.05H104.958Z" stroke="white" stroke-width="10"/>
<rect x="90" y="908.051" width="327" height="56" stroke="white" stroke-width="10"/>
<path d="M90 810.051H254.122H417V837.551V865.051H90V810.051Z" stroke="white" stroke-width="10"/>
<path d="M91.0001 711.051H334V767.051H91.0001V711.051Z" stroke="white" stroke-width="10"/>
<rect x="198" y="178.051" width="362" height="362" stroke="white" stroke-width="10"/>
<path d="M365 173.051H193V345.051C97.7309 345.051 20 267.82 20 172.551C20 77.2819 97.2309 0.0510254 192.5 0.0510254C287.769 0.0510254 365 77.7819 365 173.051Z" fill="#EB00FF"/>
<path d="M735 639.051L328.5 882.404L328.5 395.698L735 639.051Z" fill="#EB00FF"/>
<path d="M253.5 837.051L313.333 1021.2H506.957L350.312 1135.01L410.145 1319.15L253.5 1205.34L96.8552 1319.15L156.688 1135.01L0.0434418 1021.2H193.667L253.5 837.051Z" fill="#EB00FF"/>
<path d="M193 173.051L365 173.051C365 268.32 288.269 345.051 193 345.051L193 173.051Z" fill="#00FFD1"/>
<path d="M392.67 1265.38L410.14 1319.15L270.756 1217.88L318 1136.05L392.67 1265.38Z" fill="#00FFD1"/>
<path d="M232.05 903.051H274.947L296.4 969.051H210.6L232.05 903.051Z" fill="#00FFD1"/>
<path d="M253.5 837.051L264.2 870.051H242.8L253.5 837.051Z" fill="#00FFD1"/>
<path d="M565 537.281L565 545.051L328.5 545.051L328.501 395.698L565 537.281Z" fill="#00FFD1"/>
<path d="M328.5 706.051H422V772.051H328.5V706.051Z" fill="#00FFD1"/>
<path d="M422 826.431L349.14 870.051L328.5 870.051L328.5 805.051L422 805.051L422 826.431Z" fill="#00FFD1"/>
</g>
<defs>
<clipPath id="clip0_116_5">
<rect width="735" height="1520" fill="white"/>
</clipPath>
</defs>
</svg>
