<svg width="465" height="264" viewBox="0 0 465 264" fill="none" xmlns="http://www.w3.org/2000/svg">
<path d="M149.775 3.05432L245 168.311H212.686L157.144 72.6569L51.8282 255.532H68.0641H68.8542L64.5088 263.054H64.1137H-0.000244141L149.775 3.05432Z" fill="#00FFD1"/>
<path d="M238.39 32.0543H206L335.283 255.53H303.647H302.853L307.219 263.054H307.616H372L238.39 32.0543Z" fill="#00FFD1"/>
<path d="M308.05 3.05432L458 263.054H393.875H393.479L389.128 255.532H389.919H421.447L315.944 72.6569L237.054 209.447H189L308.05 3.05432Z" fill="#00FFD1"/>
<path d="M222.719 3.05432H271L119.146 255.532H140.453H141.248L136.876 263.054H136.478H71.9998L222.719 3.05432Z" fill="#00FFD1"/>
<path d="M156.775 0.0543213L259.85 179.054L244.05 206.444L164.144 69.6569L58.8282 252.532H75.0641H75.8542L71.5088 260.054H71.1138H6.99976L156.775 0.0543213Z" fill="#EB00FF"/>
<path d="M245.39 29.0543H213L342.283 252.53H310.647H309.853L314.219 260.054H314.616H379L245.39 29.0543Z" fill="#EB00FF"/>
<path d="M315.05 0.0543213L465 260.054H400.875H400.479L396.128 252.532H396.919H428.447L322.944 69.6569L244.054 206.447H196L315.05 0.0543213Z" fill="#EB00FF"/>
<path d="M229.719 0.0543213H278L126.146 252.532H147.453H148.248L143.876 260.054H143.478H78.9998L229.719 0.0543213Z" fill="#EB00FF"/>
<g clip-path="url(#clip0_135_69)">
<path d="M149.775 3.05432L245 168.311H212.686L157.144 72.6569L51.8282 255.532H68.0641H68.8542L64.5088 263.054H64.1137H-0.000244141L149.775 3.05432Z" fill="white"/>
<path d="M238.39 32.0543H206L335.283 255.53H303.647H302.853L307.219 263.054H307.616H372L238.39 32.0543Z" fill="white"/>
<path d="M308.05 3.05432L458 263.054H393.875H393.479L389.128 255.532H389.919H421.447L315.944 72.6569L237.054 209.447H189L308.05 3.05432Z" fill="white"/>
<path d="M222.719 3.05432H271L119.146 255.532H140.453H141.248L136.876 263.054H136.478H71.9998L222.719 3.05432Z" fill="white"/>
<path d="M156.775 0.0543213L252 165.311H219.686L164.144 69.6569L58.8282 252.532H75.0641H75.8542L71.5088 260.054H71.1137H6.99976L156.775 0.0543213Z" fill="#1A0034"/>
<path d="M229.72 0.0543213L213 29.0543L342.283 252.53H310.647H309.853L314.219 260.054H314.616H379L229.72 0.0543213Z" fill="#1A0034"/>
<path d="M315.05 0.0543213L465 260.054H400.875H400.479L396.128 252.532H396.919H428.447L322.944 69.6569L244.054 206.447H196L315.05 0.0543213Z" fill="#1A0034"/>
<path d="M229.719 0.0543213H278L126.146 252.532H147.453H148.248L143.876 260.054H143.478H78.9998L229.719 0.0543213Z" fill="#1A0034"/>
</g>
<path d="M236 206.444L238.79 206.444L237.05 209.444H236V206.444Z" fill="#00FFD1"/>
<path d="M190.73 206.444H236V209.444L189 209.444L190.73 206.444Z" fill="white"/>
<path d="M73.7398 260.054H138.62L136.88 263.054H71.9998L73.7398 260.054Z" fill="white"/>
<path d="M1.72976 260.054H66.2398L64.5098 263.054H-0.000244141L1.72976 260.054Z" fill="white"/>
<path d="M236 29.0543V10.9943L253.3 41.1243L236.31 69.3544L236 68.8043V29.0543Z" fill="#00FFD1"/>
<path d="M236 137.634L259.85 179.054L244.06 206.444L236 192.664V137.634Z" fill="#00FFD1"/>
<path d="M255.72 102.904L272.28 74.1943L296.25 115.934L279.78 144.504L255.72 102.904Z" fill="#00FFD1"/>
<path d="M236 137.634V149.054V192.664L219.87 165.054L235.85 137.374L236 137.634Z" fill="white"/>
<path d="M176.77 91.4043L193.14 63.1543L216.1 103.004L199.51 130.554L176.77 91.4043Z" fill="white"/>
<path d="M212.95 28.9843L229.72 0.0543213L236 10.9943V68.8043L212.95 28.9843Z" fill="white"/>
<defs>
<clipPath id="clip0_135_69">
<rect width="229" height="260" fill="white" transform="translate(236 0.0543213)"/>
</clipPath>
</defs>
</svg>
