<svg width="689" height="876" viewBox="0 0 689 876" fill="none" xmlns="http://www.w3.org/2000/svg">
<g clip-path="url(#clip0_115_4)">
<path d="M661.413 775.581L688.311 875.963L587.929 849.065L633.9 821.552L661.413 775.581Z" fill="#EB00FF"/>
<path d="M206.061 827.852L46.0607 760.252C33.7941 755.185 27.6607 746.385 27.6607 733.852C27.6607 727.718 29.1274 722.652 32.0607 718.652C35.2607 714.385 39.9274 710.918 46.0607 708.252L206.061 640.252C210.594 638.385 214.594 637.985 218.061 639.051C221.794 640.118 224.727 642.118 226.861 645.051C228.994 647.985 230.194 651.318 230.461 655.052C230.727 658.785 229.927 662.385 228.061 665.852C226.461 669.052 223.394 671.585 218.861 673.452L44.4607 746.652V721.852L218.861 795.052C223.394 796.918 226.461 799.585 228.061 803.052C229.927 806.252 230.727 809.718 230.461 813.452C230.194 816.918 228.994 820.118 226.861 823.052C224.727 825.985 221.794 827.985 218.061 829.052C214.594 830.118 210.594 829.718 206.061 827.852ZM281.904 860.652C280.304 865.718 277.771 869.318 274.304 871.452C270.838 873.852 266.971 875.052 262.704 875.052C258.704 875.052 254.971 873.985 251.504 871.852C248.038 869.718 245.638 866.652 244.304 862.652C242.704 858.918 242.704 854.385 244.304 849.052L336.704 562.252C338.304 557.185 340.838 553.451 344.304 551.051C348.038 548.652 351.904 547.585 355.904 547.852C359.904 547.852 363.638 548.918 367.104 551.051C370.571 553.185 372.971 556.118 374.304 559.851C375.904 563.585 375.904 568.118 374.304 573.452L281.904 860.652ZM413.295 827.852C408.762 829.718 404.628 830.118 400.895 829.052C397.428 827.985 394.628 825.985 392.495 823.052C390.362 820.118 389.162 816.918 388.895 813.452C388.628 809.718 389.428 806.252 391.295 803.052C393.162 799.585 396.228 796.918 400.495 795.052L574.895 721.852V746.652L400.495 673.452C396.228 671.585 393.162 669.052 391.295 665.852C389.428 662.385 388.628 658.785 388.895 655.052C389.162 651.318 390.362 647.985 392.495 645.051C394.628 642.118 397.428 640.118 400.895 639.051C404.628 637.985 408.762 638.385 413.295 640.252L573.295 708.252C585.562 713.318 591.695 721.852 591.695 733.852C591.695 739.985 590.095 745.318 586.895 749.852C583.962 754.118 579.428 757.585 573.295 760.252L413.295 827.852Z" fill="#EB00FF"/>
<path d="M259.842 354.051C249.709 354.051 240.909 352.185 233.442 348.451C226.242 344.718 220.775 339.118 217.042 331.651C213.309 324.451 211.442 315.785 211.442 305.651V228.051C211.442 217.118 209.442 209.251 205.442 204.451C201.709 199.385 194.775 196.718 184.642 196.451C179.575 196.185 175.575 194.185 172.642 190.451C169.709 186.718 168.242 182.185 168.242 176.851C168.242 171.518 169.709 167.118 172.642 163.651C175.575 159.918 179.575 157.918 184.642 157.651C194.775 157.118 201.709 154.451 205.442 149.651C209.442 144.585 211.442 136.718 211.442 126.051V48.4514C211.442 32.9848 215.575 21.1181 223.842 12.8514C232.375 4.3181 244.375 0.0514355 259.842 0.0514355H288.242C294.375 0.0514355 299.309 1.9181 303.042 5.65143C307.042 9.1181 309.042 13.5181 309.042 18.8514C309.042 24.1848 307.442 28.7181 304.242 32.4514C301.042 35.9181 296.775 37.6515 291.442 37.6515H277.442C272.109 37.6515 268.109 39.1181 265.442 42.0514C262.775 44.9848 261.442 49.3848 261.442 55.2514V132.051C261.442 140.318 259.709 147.918 256.242 154.851C252.775 161.785 248.109 167.385 242.242 171.651C236.642 175.918 230.242 178.051 223.042 178.051V176.451C230.242 176.451 236.642 178.585 242.242 182.851C248.109 186.851 252.775 192.318 256.242 199.251C259.709 206.185 261.442 213.785 261.442 222.051V298.851C261.442 304.718 262.775 309.118 265.442 312.051C268.109 314.985 272.109 316.451 277.442 316.451H291.442C296.775 316.451 301.042 318.185 304.242 321.651C307.442 325.385 309.042 329.918 309.042 335.251C309.042 340.585 307.042 344.985 303.042 348.451C299.309 352.185 294.375 354.051 288.242 354.051H259.842ZM348.908 354.051C343.041 354.051 338.108 352.185 334.108 348.451C330.108 344.985 328.108 340.585 328.108 335.251C328.108 329.918 329.708 325.385 332.908 321.651C336.108 318.185 340.374 316.451 345.708 316.451H359.708C365.041 316.451 369.041 314.985 371.708 312.051C374.374 309.118 375.708 304.718 375.708 298.851V222.051C375.708 213.785 377.441 206.185 380.908 199.251C384.374 192.318 389.041 186.718 394.908 182.451C400.774 178.185 407.174 176.051 414.108 176.051V177.651C407.174 177.651 400.774 175.651 394.908 171.651C389.041 167.385 384.374 161.785 380.908 154.851C377.441 147.918 375.708 140.318 375.708 132.051V55.2514C375.708 49.3848 374.374 44.9848 371.708 42.0514C369.041 39.1181 365.041 37.6515 359.708 37.6515H345.708C340.374 37.6515 336.108 35.9181 332.908 32.4514C329.708 28.7181 328.108 24.1848 328.108 18.8514C328.108 13.5181 330.108 9.1181 334.108 5.65143C338.108 1.9181 343.041 0.0514355 348.908 0.0514355H377.308C387.708 0.0514355 396.508 1.9181 403.708 5.65143C410.908 9.38477 416.374 14.8514 420.108 22.0514C423.841 29.2514 425.708 38.0514 425.708 48.4514V126.051C425.708 136.718 427.708 144.585 431.708 149.651C435.708 154.451 442.641 157.118 452.508 157.651C457.841 157.918 461.841 159.918 464.508 163.651C467.441 167.385 468.908 171.918 468.908 177.251C468.908 182.318 467.441 186.718 464.508 190.451C461.841 194.185 457.841 196.185 452.508 196.451C442.641 196.718 435.708 199.385 431.708 204.451C427.708 209.251 425.708 217.118 425.708 228.051V305.651C425.708 321.118 421.441 332.985 412.908 341.251C404.641 349.785 392.774 354.051 377.308 354.051H348.908Z" fill="#EB00FF"/>
<g clip-path="url(#clip1_115_4)">
<path d="M324 848.052H648.4L324 523.652V848.052Z" fill="#1A0034"/>
<path d="M659.4 512.652H335L636.5 815L659.4 837.052V512.652Z" fill="#1A0034"/>
<path d="M659.4 778.941L688 875.5L589.62 848.051L632.9 821.552L659.4 778.941Z" fill="#00FFD1"/>
<path d="M206.061 827.852L46.0607 760.252C33.7941 755.185 27.6607 746.385 27.6607 733.852C27.6607 727.718 29.1274 722.652 32.0607 718.652C35.2607 714.385 39.9274 710.918 46.0607 708.252L206.061 640.252C210.594 638.385 214.594 637.985 218.061 639.051C221.794 640.118 224.727 642.118 226.861 645.051C228.994 647.985 230.194 651.318 230.461 655.052C230.727 658.785 229.927 662.385 228.061 665.852C226.461 669.052 223.394 671.585 218.861 673.452L44.4607 746.652V721.852L218.861 795.052C223.394 796.918 226.461 799.585 228.061 803.052C229.927 806.252 230.727 809.718 230.461 813.452C230.194 816.918 228.994 820.118 226.861 823.052C224.727 825.985 221.794 827.985 218.061 829.052C214.594 830.118 210.594 829.718 206.061 827.852ZM281.904 860.652C280.304 865.718 277.771 869.318 274.304 871.452C270.838 873.852 266.971 875.052 262.704 875.052C258.704 875.052 254.971 873.985 251.504 871.852C248.038 869.718 245.638 866.652 244.304 862.652C242.704 858.918 242.704 854.385 244.304 849.052L336.704 562.252C338.304 557.185 340.838 553.451 344.304 551.051C348.038 548.652 351.904 547.585 355.904 547.852C359.904 547.852 363.638 548.918 367.104 551.051C370.571 553.185 372.971 556.118 374.304 559.851C375.904 563.585 375.904 568.118 374.304 573.452L281.904 860.652ZM413.295 827.852C408.762 829.718 404.628 830.118 400.895 829.052C397.428 827.985 394.628 825.985 392.495 823.052C390.362 820.118 389.162 816.918 388.895 813.452C388.628 809.718 389.428 806.252 391.295 803.052C393.162 799.585 396.228 796.918 400.495 795.052L574.895 721.852V746.652L400.495 673.452C396.228 671.585 393.162 669.052 391.295 665.852C389.428 662.385 388.628 658.785 388.895 655.052C389.162 651.318 390.362 647.985 392.495 645.051C394.628 642.118 397.428 640.118 400.895 639.051C404.628 637.985 408.762 638.385 413.295 640.252L573.295 708.252C585.562 713.318 591.695 721.852 591.695 733.852C591.695 739.985 590.095 745.318 586.895 749.852C583.962 754.118 579.428 757.585 573.295 760.252L413.295 827.852Z" fill="#00FFD1"/>
</g>
<g clip-path="url(#clip2_115_4)">
<path d="M324.4 513.051H-0.000213623L324.4 188.651V513.051Z" fill="#1A0034"/>
<path d="M156.9 334.951L-0.000213623 178.051H313.79L156.9 334.951Z" fill="#1A0034"/>
<path d="M259.842 355.051C249.709 355.051 240.909 353.185 233.442 349.451C226.242 345.718 220.775 340.118 217.042 332.651C213.309 325.451 211.442 316.785 211.442 306.651V229.051C211.442 218.118 209.442 210.251 205.442 205.451C201.709 200.385 194.775 197.718 184.642 197.451C179.575 197.185 175.575 195.185 172.642 191.451C169.709 187.718 168.242 183.185 168.242 177.851C168.242 172.518 169.709 168.118 172.642 164.651C175.575 160.918 179.575 158.918 184.642 158.651C194.775 158.118 201.709 155.451 205.442 150.651C209.442 145.585 211.442 137.718 211.442 127.051V49.4514C211.442 33.9848 215.575 22.1181 223.842 13.8514C232.375 5.3181 244.375 1.05144 259.842 1.05144H288.242C294.375 1.05144 299.309 2.9181 303.042 6.65143C307.042 10.1181 309.042 14.5181 309.042 19.8514C309.042 25.1848 307.442 29.7181 304.242 33.4514C301.042 36.9181 296.775 38.6515 291.442 38.6515H277.442C272.109 38.6515 268.109 40.1181 265.442 43.0514C262.775 45.9848 261.442 50.3848 261.442 56.2514V133.051C261.442 141.318 259.709 148.918 256.242 155.851C252.775 162.785 248.109 168.385 242.242 172.651C236.642 176.918 230.242 179.051 223.042 179.051V177.451C230.242 177.451 236.642 179.585 242.242 183.851C248.109 187.851 252.775 193.318 256.242 200.251C259.709 207.185 261.442 214.785 261.442 223.051V299.851C261.442 305.718 262.775 310.118 265.442 313.051C268.109 315.985 272.109 317.451 277.442 317.451H291.442C296.775 317.451 301.042 319.185 304.242 322.651C307.442 326.385 309.042 330.918 309.042 336.251C309.042 341.585 307.042 345.985 303.042 349.451C299.309 353.185 294.375 355.051 288.242 355.051H259.842ZM348.908 355.051C343.041 355.051 338.108 353.185 334.108 349.451C330.108 345.985 328.108 341.585 328.108 336.251C328.108 330.918 329.708 326.385 332.908 322.651C336.108 319.185 340.374 317.451 345.708 317.451H359.708C365.041 317.451 369.041 315.985 371.708 313.051C374.374 310.118 375.708 305.718 375.708 299.851V223.051C375.708 214.785 377.441 207.185 380.908 200.251C384.374 193.318 389.041 187.718 394.908 183.451C400.774 179.185 407.174 177.051 414.108 177.051V178.651C407.174 178.651 400.774 176.651 394.908 172.651C389.041 168.385 384.374 162.785 380.908 155.851C377.441 148.918 375.708 141.318 375.708 133.051V56.2514C375.708 50.3848 374.374 45.9848 371.708 43.0514C369.041 40.1181 365.041 38.6515 359.708 38.6515H345.708C340.374 38.6515 336.108 36.9181 332.908 33.4514C329.708 29.7181 328.108 25.1848 328.108 19.8514C328.108 14.5181 330.108 10.1181 334.108 6.65143C338.108 2.9181 343.041 1.05144 348.908 1.05144H377.308C387.708 1.05144 396.508 2.9181 403.708 6.65143C410.908 10.3848 416.374 15.8514 420.108 23.0514C423.841 30.2514 425.708 39.0514 425.708 49.4514V127.051C425.708 137.718 427.708 145.585 431.708 150.651C435.708 155.451 442.641 158.118 452.508 158.651C457.841 158.918 461.841 160.918 464.508 164.651C467.441 168.385 468.908 172.918 468.908 178.251C468.908 183.318 467.441 187.718 464.508 191.451C461.841 195.185 457.841 197.185 452.508 197.451C442.641 197.718 435.708 200.385 431.708 205.451C427.708 210.251 425.708 218.118 425.708 229.051V306.651C425.708 322.118 421.441 333.985 412.908 342.251C404.641 350.785 392.774 355.051 377.308 355.051H348.908Z" fill="#00FFD1"/>
</g>
</g>
<defs>
<clipPath id="clip0_115_4">
<rect width="689" height="876" fill="#00FFD1"/>
</clipPath>
<clipPath id="clip1_115_4">
<rect width="335" height="335" fill="#00FFD1" transform="translate(324.4 513.052)"/>
</clipPath>
<clipPath id="clip2_115_4">
<rect width="324" height="335" fill="#00FFD1" transform="matrix(-1 0 0 1 324 178)"/>
</clipPath>
</defs>
</svg>
