<svg width="745" height="1497" viewBox="0 0 745 1497" fill="none" xmlns="http://www.w3.org/2000/svg">
<g clip-path="url(#clip0_115_4)">
<path d="M718.413 1396.58L745.311 1496.96L644.929 1470.07L690.9 1442.55L718.413 1396.58Z" fill="#EB00FF"/>
<path d="M229.061 1291.85L69.0607 1224.25C56.794 1219.18 50.6607 1210.38 50.6607 1197.85C50.6607 1191.72 52.1274 1186.65 55.0607 1182.65C58.2607 1178.38 62.9274 1174.92 69.0607 1172.25L229.061 1104.25C233.594 1102.38 237.594 1101.98 241.061 1103.05C244.794 1104.12 247.727 1106.12 249.861 1109.05C251.994 1111.98 253.194 1115.32 253.461 1119.05C253.727 1122.78 252.927 1126.38 251.061 1129.85C249.461 1133.05 246.394 1135.58 241.861 1137.45L67.4607 1210.65V1185.85L241.861 1259.05C246.394 1260.92 249.461 1263.58 251.061 1267.05C252.927 1270.25 253.727 1273.72 253.461 1277.45C253.194 1280.92 251.994 1284.12 249.861 1287.05C247.727 1289.98 244.794 1291.98 241.061 1293.05C237.594 1294.12 233.594 1293.72 229.061 1291.85ZM304.904 1324.65C303.304 1329.72 300.771 1333.32 297.304 1335.45C293.838 1337.85 289.971 1339.05 285.704 1339.05C281.704 1339.05 277.971 1337.98 274.504 1335.85C271.038 1333.72 268.638 1330.65 267.304 1326.65C265.704 1322.92 265.704 1318.38 267.304 1313.05L359.704 1026.25C361.304 1021.18 363.838 1017.45 367.304 1015.05C371.038 1012.65 374.904 1011.58 378.904 1011.85C382.904 1011.85 386.638 1012.92 390.104 1015.05C393.571 1017.18 395.971 1020.12 397.304 1023.85C398.904 1027.58 398.904 1032.12 397.304 1037.45L304.904 1324.65ZM436.295 1291.85C431.762 1293.72 427.628 1294.12 423.895 1293.05C420.428 1291.98 417.628 1289.98 415.495 1287.05C413.362 1284.12 412.162 1280.92 411.895 1277.45C411.628 1273.72 412.428 1270.25 414.295 1267.05C416.162 1263.58 419.228 1260.92 423.495 1259.05L597.895 1185.85V1210.65L423.495 1137.45C419.228 1135.58 416.162 1133.05 414.295 1129.85C412.428 1126.38 411.628 1122.78 411.895 1119.05C412.162 1115.32 413.362 1111.98 415.495 1109.05C417.628 1106.12 420.428 1104.12 423.895 1103.05C427.628 1101.98 431.762 1102.38 436.295 1104.25L596.295 1172.25C608.562 1177.32 614.695 1185.85 614.695 1197.85C614.695 1203.98 613.095 1209.32 609.895 1213.85C606.962 1218.12 602.428 1221.58 596.295 1224.25L436.295 1291.85Z" fill="#EB00FF"/>
<path d="M424.469 871.851C419.402 871.851 415.402 870.251 412.469 867.051C409.802 863.851 408.202 859.318 407.669 853.451L395.669 700.651C394.869 690.785 397.002 682.918 402.069 677.051C407.135 670.918 414.602 667.851 424.469 667.851C434.069 667.851 441.269 670.918 446.069 677.051C451.135 682.918 453.269 690.785 452.469 700.651L440.469 853.451C440.202 859.318 438.602 863.851 435.669 867.051C433.002 870.251 429.269 871.851 424.469 871.851ZM424.469 955.051C415.402 955.051 408.069 952.251 402.469 946.651C397.135 941.051 394.469 933.851 394.469 925.051C394.469 916.518 397.135 909.585 402.469 904.251C408.069 898.651 415.402 895.851 424.469 895.851C433.802 895.851 441.002 898.651 446.069 904.251C451.402 909.585 454.069 916.518 454.069 925.051C454.069 933.851 451.402 941.051 446.069 946.651C441.002 952.251 433.802 955.051 424.469 955.051ZM510.887 815.851C505.287 815.851 500.887 814.385 497.687 811.451C494.487 808.251 492.887 803.851 492.887 798.251C492.887 792.651 494.487 788.385 497.687 785.451C500.887 782.251 505.287 780.651 510.887 780.651H676.487C682.354 780.651 686.754 782.251 689.687 785.451C692.887 788.385 694.487 792.651 694.487 798.251C694.487 803.851 692.887 808.251 689.687 811.451C686.754 814.385 682.354 815.851 676.487 815.851H510.887ZM510.887 895.451C505.287 895.451 500.887 893.985 497.687 891.051C494.487 887.851 492.887 883.451 492.887 877.851C492.887 872.251 494.487 867.985 497.687 865.051C500.887 862.118 505.287 860.651 510.887 860.651H676.487C682.354 860.651 686.754 862.118 689.687 865.051C692.887 867.985 694.487 872.251 694.487 877.851C694.487 883.718 692.887 888.118 689.687 891.051C686.754 893.985 682.354 895.451 676.487 895.451H510.887Z" fill="#EB00FF"/>
<path d="M104.842 837.051C94.7086 837.051 85.9086 835.185 78.4419 831.451C71.2419 827.718 65.7753 822.118 62.0419 814.651C58.3086 807.451 56.4419 798.785 56.4419 788.651V711.051C56.4419 700.118 54.4419 692.251 50.4419 687.451C46.7086 682.385 39.7753 679.718 29.6419 679.451C24.5753 679.185 20.5753 677.185 17.6419 673.451C14.7086 669.718 13.2419 665.185 13.2419 659.851C13.2419 654.518 14.7086 650.118 17.6419 646.651C20.5753 642.918 24.5753 640.918 29.6419 640.651C39.7753 640.118 46.7086 637.451 50.4419 632.651C54.4419 627.585 56.4419 619.718 56.4419 609.051V531.451C56.4419 515.985 60.5753 504.118 68.8419 495.851C77.3753 487.318 89.3753 483.051 104.842 483.051H133.242C139.375 483.051 144.309 484.918 148.042 488.651C152.042 492.118 154.042 496.518 154.042 501.851C154.042 507.185 152.442 511.718 149.242 515.451C146.042 518.918 141.775 520.651 136.442 520.651H122.442C117.109 520.651 113.109 522.118 110.442 525.051C107.775 527.985 106.442 532.385 106.442 538.251V615.051C106.442 623.318 104.709 630.918 101.242 637.851C97.7753 644.785 93.1086 650.385 87.2419 654.651C81.6419 658.918 75.2419 661.051 68.0419 661.051V659.451C75.2419 659.451 81.6419 661.585 87.2419 665.851C93.1086 669.851 97.7753 675.318 101.242 682.251C104.709 689.185 106.442 696.785 106.442 705.051V781.851C106.442 787.718 107.775 792.118 110.442 795.051C113.109 797.985 117.109 799.451 122.442 799.451H136.442C141.775 799.451 146.042 801.185 149.242 804.651C152.442 808.385 154.042 812.918 154.042 818.251C154.042 823.585 152.042 827.985 148.042 831.451C144.309 835.185 139.375 837.051 133.242 837.051H104.842ZM193.908 837.051C188.041 837.051 183.108 835.185 179.108 831.451C175.108 827.985 173.108 823.585 173.108 818.251C173.108 812.918 174.708 808.385 177.908 804.651C181.108 801.185 185.374 799.451 190.708 799.451H204.708C210.041 799.451 214.041 797.985 216.708 795.051C219.374 792.118 220.708 787.718 220.708 781.851V705.051C220.708 696.785 222.441 689.185 225.908 682.251C229.374 675.318 234.041 669.718 239.908 665.451C245.774 661.185 252.174 659.051 259.108 659.051V660.651C252.174 660.651 245.774 658.651 239.908 654.651C234.041 650.385 229.374 644.785 225.908 637.851C222.441 630.918 220.708 623.318 220.708 615.051V538.251C220.708 532.385 219.374 527.985 216.708 525.051C214.041 522.118 210.041 520.651 204.708 520.651H190.708C185.374 520.651 181.108 518.918 177.908 515.451C174.708 511.718 173.108 507.185 173.108 501.851C173.108 496.518 175.108 492.118 179.108 488.651C183.108 484.918 188.041 483.051 193.908 483.051H222.308C232.708 483.051 241.508 484.918 248.708 488.651C255.908 492.385 261.374 497.851 265.108 505.051C268.841 512.251 270.708 521.051 270.708 531.451V609.051C270.708 619.718 272.708 627.585 276.708 632.651C280.708 637.451 287.641 640.118 297.508 640.651C302.841 640.918 306.841 642.918 309.508 646.651C312.441 650.385 313.908 654.918 313.908 660.251C313.908 665.318 312.441 669.718 309.508 673.451C306.841 677.185 302.841 679.185 297.508 679.451C287.641 679.718 280.708 682.385 276.708 687.451C272.708 692.251 270.708 700.118 270.708 711.051V788.651C270.708 804.118 266.441 815.985 257.908 824.251C249.641 832.785 237.774 837.051 222.308 837.051H193.908Z" fill="#EB00FF"/>
<path d="M405.356 434.851L245.356 367.251C233.089 362.185 226.956 353.385 226.956 340.851C226.956 334.718 228.423 329.651 231.356 325.651C234.556 321.385 239.223 317.918 245.356 315.251L405.356 247.251C409.889 245.385 413.889 244.985 417.356 246.051C421.089 247.118 424.023 249.118 426.156 252.051C428.289 254.985 429.489 258.318 429.756 262.051C430.023 265.785 429.223 269.385 427.356 272.851C425.756 276.051 422.689 278.585 418.156 280.451L243.756 353.651V328.851L418.156 402.051C422.689 403.918 425.756 406.585 427.356 410.051C429.223 413.251 430.023 416.718 429.756 420.451C429.489 423.918 428.289 427.118 426.156 430.051C424.023 432.985 421.089 434.985 417.356 436.051C413.889 437.118 409.889 436.718 405.356 434.851ZM487.2 434.851C482.666 436.718 478.533 437.118 474.8 436.051C471.333 434.985 468.533 432.985 466.4 430.051C464.266 427.118 463.066 423.918 462.8 420.451C462.533 416.718 463.333 413.251 465.2 410.051C467.066 406.585 470.133 403.918 474.4 402.051L648.8 328.851V353.651L474.4 280.451C470.133 278.585 467.066 276.051 465.2 272.851C463.333 269.385 462.533 265.785 462.8 262.051C463.066 258.318 464.266 254.985 466.4 252.051C468.533 249.118 471.333 247.118 474.8 246.051C478.533 244.985 482.666 245.385 487.2 247.251L647.2 315.251C659.466 320.318 665.6 328.851 665.6 340.851C665.6 346.985 664 352.318 660.8 356.851C657.866 361.118 653.333 364.585 647.2 367.251L487.2 434.851Z" fill="#EB00FF"/>
<path d="M35.4779 289.251C29.3445 289.251 25.0779 287.385 22.6779 283.651C20.5445 279.918 20.0112 274.985 21.0779 268.851L31.4779 214.051L48.2779 217.251H19.4779C15.4779 217.251 12.0112 216.718 9.07788 215.651C6.41121 214.318 4.27788 212.451 2.67788 210.051C1.34455 207.651 0.677881 204.718 0.677881 201.251C0.677881 195.918 2.27788 191.918 5.47788 189.251C8.94455 186.585 13.6112 185.251 19.4779 185.251H54.2779L36.2779 188.851L54.2779 97.6514L66.6779 101.651H27.8779C23.8779 101.651 20.4112 100.985 17.4779 99.6514C14.8112 98.3181 12.6779 96.4514 11.0779 94.0514C9.74455 91.6514 9.07788 88.7181 9.07788 85.2514C9.07788 79.9181 10.6779 76.0514 13.8779 73.6514C17.3445 70.9848 22.0112 69.6514 27.8779 69.6514H72.6779L58.2779 73.2515L69.4779 17.6515C70.8112 11.7848 73.0779 7.51811 76.2779 4.85145C79.7446 2.18477 84.1446 0.851429 89.4779 0.851429C95.0779 0.851429 99.0779 2.7181 101.478 6.45143C104.145 9.9181 104.811 14.8514 103.478 21.2514L93.8779 69.6514H144.278L154.678 17.6515C156.011 11.7848 158.278 7.51811 161.478 4.85145C164.945 2.18477 169.345 0.851429 174.678 0.851429C180.278 0.851429 184.278 2.7181 186.678 6.45143C189.345 9.9181 190.011 14.8514 188.678 21.2514L178.278 73.2515L166.278 69.6514H190.678C194.678 69.6514 198.011 70.3181 200.678 71.6514C203.611 72.7181 205.745 74.4515 207.078 76.8515C208.678 78.9848 209.478 81.7848 209.478 85.2514C209.478 90.3181 207.878 94.3181 204.678 97.2514C201.478 100.185 196.811 101.651 190.678 101.651H159.878L173.878 97.6514L155.878 188.851L143.478 185.251H182.278C186.278 185.251 189.611 185.918 192.278 187.251C195.211 188.318 197.345 190.051 198.678 192.451C200.278 194.851 201.078 197.785 201.078 201.251C201.078 206.318 199.478 210.318 196.278 213.251C193.078 215.918 188.411 217.251 182.278 217.251H137.478L151.878 214.051L139.878 272.451C138.811 278.318 136.545 282.585 133.078 285.251C129.878 287.918 125.611 289.251 120.278 289.251C114.678 289.251 110.545 287.518 107.878 284.051C105.478 280.318 104.811 275.251 105.878 268.851L116.278 217.251H65.8779L55.0779 272.451C54.0112 278.318 51.7445 282.585 48.2779 285.251C45.0779 287.918 40.8112 289.251 35.4779 289.251ZM71.8779 185.251H121.878L138.278 101.651H88.2779L71.8779 185.251Z" fill="#EB00FF"/>
<g clip-path="url(#clip1_115_4)">
<path d="M381 1469.05H705.4L381 1144.65V1469.05Z" fill="#1A0034"/>
<path d="M716.4 1133.65H392L716.4 1458.05V1133.65Z" fill="#1A0034"/>
<path d="M717.413 1396.58L744.311 1496.96L643.929 1470.07L689.9 1442.55L717.413 1396.58Z" fill="#00FFD1"/>
<path d="M230.061 1292.85L70.0607 1225.25C57.794 1220.18 51.6607 1211.38 51.6607 1198.85C51.6607 1192.72 53.1274 1187.65 56.0607 1183.65C59.2607 1179.38 63.9274 1175.92 70.0607 1173.25L230.061 1105.25C234.594 1103.38 238.594 1102.98 242.061 1104.05C245.794 1105.12 248.727 1107.12 250.861 1110.05C252.994 1112.98 254.194 1116.32 254.461 1120.05C254.727 1123.78 253.927 1127.38 252.061 1130.85C250.461 1134.05 247.394 1136.58 242.861 1138.45L68.4607 1211.65V1186.85L242.861 1260.05C247.394 1261.92 250.461 1264.58 252.061 1268.05C253.927 1271.25 254.727 1274.72 254.461 1278.45C254.194 1281.92 252.994 1285.12 250.861 1288.05C248.727 1290.98 245.794 1292.98 242.061 1294.05C238.594 1295.12 234.594 1294.72 230.061 1292.85ZM305.904 1325.65C304.304 1330.72 301.771 1334.32 298.304 1336.45C294.838 1338.85 290.971 1340.05 286.704 1340.05C282.704 1340.05 278.971 1338.98 275.504 1336.85C272.038 1334.72 269.638 1331.65 268.304 1327.65C266.704 1323.92 266.704 1319.38 268.304 1314.05L360.704 1027.25C362.304 1022.18 364.838 1018.45 368.304 1016.05C372.038 1013.65 375.904 1012.58 379.904 1012.85C383.904 1012.85 387.638 1013.92 391.104 1016.05C394.571 1018.18 396.971 1021.12 398.304 1024.85C399.904 1028.58 399.904 1033.12 398.304 1038.45L305.904 1325.65ZM437.295 1292.85C432.762 1294.72 428.628 1295.12 424.895 1294.05C421.428 1292.98 418.628 1290.98 416.495 1288.05C414.362 1285.12 413.162 1281.92 412.895 1278.45C412.628 1274.72 413.428 1271.25 415.295 1268.05C417.162 1264.58 420.228 1261.92 424.495 1260.05L598.895 1186.85V1211.65L424.495 1138.45C420.228 1136.58 417.162 1134.05 415.295 1130.85C413.428 1127.38 412.628 1123.78 412.895 1120.05C413.162 1116.32 414.362 1112.98 416.495 1110.05C418.628 1107.12 421.428 1105.12 424.895 1104.05C428.628 1102.98 432.762 1103.38 437.295 1105.25L597.295 1173.25C609.562 1178.32 615.695 1186.85 615.695 1198.85C615.695 1204.98 614.095 1210.32 610.895 1214.85C607.962 1219.12 603.428 1222.58 597.295 1225.25L437.295 1292.85Z" fill="#00FFD1"/>
</g>
<g clip-path="url(#clip2_115_4)">
<path d="M381.4 1134.05H56.9998L381.4 809.651V1134.05Z" fill="#1A0034"/>
<path d="M213.9 955.951L56.9998 799.051H370.79L213.9 955.951Z" fill="#1A0034"/>
<path d="M229.061 1291.85L69.0607 1224.25C56.794 1219.18 50.6607 1210.38 50.6607 1197.85C50.6607 1191.72 52.1274 1186.65 55.0607 1182.65C58.2607 1178.38 62.9274 1174.92 69.0607 1172.25L229.061 1104.25C233.594 1102.38 237.594 1101.98 241.061 1103.05C244.794 1104.12 247.727 1106.12 249.861 1109.05C251.994 1111.98 253.194 1115.32 253.461 1119.05C253.727 1122.78 252.927 1126.38 251.061 1129.85C249.461 1133.05 246.394 1135.58 241.861 1137.45L67.4607 1210.65V1185.85L241.861 1259.05C246.394 1260.92 249.461 1263.58 251.061 1267.05C252.927 1270.25 253.727 1273.72 253.461 1277.45C253.194 1280.92 251.994 1284.12 249.861 1287.05C247.727 1289.98 244.794 1291.98 241.061 1293.05C237.594 1294.12 233.594 1293.72 229.061 1291.85ZM304.904 1324.65C303.304 1329.72 300.771 1333.32 297.304 1335.45C293.838 1337.85 289.971 1339.05 285.704 1339.05C281.704 1339.05 277.971 1337.98 274.504 1335.85C271.038 1333.72 268.638 1330.65 267.304 1326.65C265.704 1322.92 265.704 1318.38 267.304 1313.05L359.704 1026.25C361.304 1021.18 363.838 1017.45 367.304 1015.05C371.038 1012.65 374.904 1011.58 378.904 1011.85C382.904 1011.85 386.638 1012.92 390.104 1015.05C393.571 1017.18 395.971 1020.12 397.304 1023.85C398.904 1027.58 398.904 1032.12 397.304 1037.45L304.904 1324.65ZM436.295 1291.85C431.762 1293.72 427.628 1294.12 423.895 1293.05C420.428 1291.98 417.628 1289.98 415.495 1287.05C413.362 1284.12 412.162 1280.92 411.895 1277.45C411.628 1273.72 412.428 1270.25 414.295 1267.05C416.162 1263.58 419.228 1260.92 423.495 1259.05L597.895 1185.85V1210.65L423.495 1137.45C419.228 1135.58 416.162 1133.05 414.295 1129.85C412.428 1126.38 411.628 1122.78 411.895 1119.05C412.162 1115.32 413.362 1111.98 415.495 1109.05C417.628 1106.12 420.428 1104.12 423.895 1103.05C427.628 1101.98 431.762 1102.38 436.295 1104.25L596.295 1172.25C608.562 1177.32 614.695 1185.85 614.695 1197.85C614.695 1203.98 613.095 1209.32 609.895 1213.85C606.962 1218.12 602.428 1221.58 596.295 1224.25L436.295 1291.85Z" fill="#00FFD1"/>
<path d="M104.842 838.051C94.7086 838.051 85.9086 836.185 78.4419 832.451C71.2419 828.718 65.7753 823.118 62.0419 815.651C58.3086 808.451 56.4419 799.785 56.4419 789.651V712.051C56.4419 701.118 54.4419 693.251 50.4419 688.451C46.7086 683.385 39.7753 680.718 29.6419 680.451C24.5753 680.185 20.5753 678.185 17.6419 674.451C14.7086 670.718 13.2419 666.185 13.2419 660.851C13.2419 655.518 14.7086 651.118 17.6419 647.651C20.5753 643.918 24.5753 641.918 29.6419 641.651C39.7753 641.118 46.7086 638.451 50.4419 633.651C54.4419 628.585 56.4419 620.718 56.4419 610.051V532.451C56.4419 516.985 60.5753 505.118 68.8419 496.851C77.3753 488.318 89.3753 484.051 104.842 484.051H133.242C139.375 484.051 144.309 485.918 148.042 489.651C152.042 493.118 154.042 497.518 154.042 502.851C154.042 508.185 152.442 512.718 149.242 516.451C146.042 519.918 141.775 521.651 136.442 521.651H122.442C117.109 521.651 113.109 523.118 110.442 526.051C107.775 528.985 106.442 533.385 106.442 539.251V616.051C106.442 624.318 104.709 631.918 101.242 638.851C97.7753 645.785 93.1086 651.385 87.2419 655.651C81.6419 659.918 75.2419 662.051 68.0419 662.051V660.451C75.2419 660.451 81.6419 662.585 87.2419 666.851C93.1086 670.851 97.7753 676.318 101.242 683.251C104.709 690.185 106.442 697.785 106.442 706.051V782.851C106.442 788.718 107.775 793.118 110.442 796.051C113.109 798.985 117.109 800.451 122.442 800.451H136.442C141.775 800.451 146.042 802.185 149.242 805.651C152.442 809.385 154.042 813.918 154.042 819.251C154.042 824.585 152.042 828.985 148.042 832.451C144.309 836.185 139.375 838.051 133.242 838.051H104.842ZM193.908 838.051C188.041 838.051 183.108 836.185 179.108 832.451C175.108 828.985 173.108 824.585 173.108 819.251C173.108 813.918 174.708 809.385 177.908 805.651C181.108 802.185 185.374 800.451 190.708 800.451H204.708C210.041 800.451 214.041 798.985 216.708 796.051C219.374 793.118 220.708 788.718 220.708 782.851V706.051C220.708 697.785 222.441 690.185 225.908 683.251C229.374 676.318 234.041 670.718 239.908 666.451C245.774 662.185 252.174 660.051 259.108 660.051V661.651C252.174 661.651 245.774 659.651 239.908 655.651C234.041 651.385 229.374 645.785 225.908 638.851C222.441 631.918 220.708 624.318 220.708 616.051V539.251C220.708 533.385 219.374 528.985 216.708 526.051C214.041 523.118 210.041 521.651 204.708 521.651H190.708C185.374 521.651 181.108 519.918 177.908 516.451C174.708 512.718 173.108 508.185 173.108 502.851C173.108 497.518 175.108 493.118 179.108 489.651C183.108 485.918 188.041 484.051 193.908 484.051H222.308C232.708 484.051 241.508 485.918 248.708 489.651C255.908 493.385 261.374 498.851 265.108 506.051C268.841 513.251 270.708 522.051 270.708 532.451V610.051C270.708 620.718 272.708 628.585 276.708 633.651C280.708 638.451 287.641 641.118 297.508 641.651C302.841 641.918 306.841 643.918 309.508 647.651C312.441 651.385 313.908 655.918 313.908 661.251C313.908 666.318 312.441 670.718 309.508 674.451C306.841 678.185 302.841 680.185 297.508 680.451C287.641 680.718 280.708 683.385 276.708 688.451C272.708 693.251 270.708 701.118 270.708 712.051V789.651C270.708 805.118 266.441 816.985 257.908 825.251C249.641 833.785 237.774 838.051 222.308 838.051H193.908Z" fill="#00FFD1"/>
</g>
<g clip-path="url(#clip3_115_4)">
<path d="M392 464.051H705.8L392 777.851L392 464.051Z" fill="#1A0034"/>
<path d="M559.5 631.531L716.4 799.051L392.03 799L559.5 631.531Z" fill="#1A0034"/>
<path d="M424.469 871.851C419.402 871.851 415.402 870.251 412.469 867.051C409.802 863.851 408.202 859.318 407.669 853.451L395.669 700.651C394.869 690.785 397.002 682.918 402.069 677.051C407.135 670.918 414.602 667.851 424.469 667.851C434.069 667.851 441.269 670.918 446.069 677.051C451.135 682.918 453.269 690.785 452.469 700.651L440.469 853.451C440.202 859.318 438.602 863.851 435.669 867.051C433.002 870.251 429.269 871.851 424.469 871.851ZM424.469 955.051C415.402 955.051 408.069 952.251 402.469 946.651C397.135 941.051 394.469 933.851 394.469 925.051C394.469 916.518 397.135 909.585 402.469 904.251C408.069 898.651 415.402 895.851 424.469 895.851C433.802 895.851 441.002 898.651 446.069 904.251C451.402 909.585 454.069 916.518 454.069 925.051C454.069 933.851 451.402 941.051 446.069 946.651C441.002 952.251 433.802 955.051 424.469 955.051ZM510.887 815.851C505.287 815.851 500.887 814.385 497.687 811.451C494.487 808.251 492.887 803.851 492.887 798.251C492.887 792.651 494.487 788.385 497.687 785.451C500.887 782.251 505.287 780.651 510.887 780.651H676.487C682.354 780.651 686.754 782.251 689.687 785.451C692.887 788.385 694.487 792.651 694.487 798.251C694.487 803.851 692.887 808.251 689.687 811.451C686.754 814.385 682.354 815.851 676.487 815.851H510.887ZM510.887 895.451C505.287 895.451 500.887 893.985 497.687 891.051C494.487 887.851 492.887 883.451 492.887 877.851C492.887 872.251 494.487 867.985 497.687 865.051C500.887 862.118 505.287 860.651 510.887 860.651H676.487C682.354 860.651 686.754 862.118 689.687 865.051C692.887 867.985 694.487 872.251 694.487 877.851C694.487 883.718 692.887 888.118 689.687 891.051C686.754 893.985 682.354 895.451 676.487 895.451H510.887Z" fill="#00FFD1"/>
</g>
<g clip-path="url(#clip4_115_4)">
<path d="M392 464.051H67.5998L392 139.651V464.051Z" fill="#1A0034"/>
<path d="M56.5998 128.651H381L56.5998 453.051V128.651Z" fill="#1A0034"/>
<path d="M405.356 434.851L245.356 367.251C233.089 362.185 226.956 353.385 226.956 340.851C226.956 334.718 228.423 329.651 231.356 325.651C234.556 321.385 239.223 317.918 245.356 315.251L405.356 247.251C409.889 245.385 413.889 244.985 417.356 246.051C421.089 247.118 424.023 249.118 426.156 252.051C428.289 254.985 429.489 258.318 429.756 262.051C430.023 265.785 429.223 269.385 427.356 272.851C425.756 276.051 422.689 278.585 418.156 280.451L243.756 353.651V328.851L418.156 402.051C422.689 403.918 425.756 406.585 427.356 410.051C429.223 413.251 430.023 416.718 429.756 420.451C429.489 423.918 428.289 427.118 426.156 430.051C424.023 432.985 421.089 434.985 417.356 436.051C413.889 437.118 409.889 436.718 405.356 434.851ZM487.2 434.851C482.666 436.718 478.533 437.118 474.8 436.051C471.333 434.985 468.533 432.985 466.4 430.051C464.266 427.118 463.066 423.918 462.8 420.451C462.533 416.718 463.333 413.251 465.2 410.051C467.066 406.585 470.133 403.918 474.4 402.051L648.8 328.851V353.651L474.4 280.451C470.133 278.585 467.066 276.051 465.2 272.851C463.333 269.385 462.533 265.785 462.8 262.051C463.066 258.318 464.266 254.985 466.4 252.051C468.533 249.118 471.333 247.118 474.8 246.051C478.533 244.985 482.666 245.385 487.2 247.251L647.2 315.251C659.466 320.318 665.6 328.851 665.6 340.851C665.6 346.985 664 352.318 660.8 356.851C657.866 361.118 653.333 364.585 647.2 367.251L487.2 434.851Z" fill="#00FFD1"/>
<path d="M35.4779 289.251C29.3445 289.251 25.0779 287.385 22.6779 283.651C20.5445 279.918 20.0112 274.985 21.0779 268.851L31.4779 214.051L48.2779 217.251H19.4779C15.4779 217.251 12.0112 216.718 9.07788 215.651C6.41121 214.318 4.27788 212.451 2.67788 210.051C1.34455 207.651 0.677881 204.718 0.677881 201.251C0.677881 195.918 2.27788 191.918 5.47788 189.251C8.94455 186.585 13.6112 185.251 19.4779 185.251H54.2779L36.2779 188.851L54.2779 97.6514L66.6779 101.651H27.8779C23.8779 101.651 20.4112 100.985 17.4779 99.6514C14.8112 98.3181 12.6779 96.4514 11.0779 94.0514C9.74455 91.6514 9.07788 88.7181 9.07788 85.2514C9.07788 79.9181 10.6779 76.0514 13.8779 73.6514C17.3445 70.9848 22.0112 69.6514 27.8779 69.6514H72.6779L58.2779 73.2515L69.4779 17.6515C70.8112 11.7848 73.0779 7.51811 76.2779 4.85145C79.7446 2.18477 84.1446 0.851429 89.4779 0.851429C95.0779 0.851429 99.0779 2.7181 101.478 6.45143C104.145 9.9181 104.811 14.8514 103.478 21.2514L93.8779 69.6514H144.278L154.678 17.6515C156.011 11.7848 158.278 7.51811 161.478 4.85145C164.945 2.18477 169.345 0.851429 174.678 0.851429C180.278 0.851429 184.278 2.7181 186.678 6.45143C189.345 9.9181 190.011 14.8514 188.678 21.2514L178.278 73.2515L166.278 69.6514H190.678C194.678 69.6514 198.011 70.3181 200.678 71.6514C203.611 72.7181 205.745 74.4515 207.078 76.8515C208.678 78.9848 209.478 81.7848 209.478 85.2514C209.478 90.3181 207.878 94.3181 204.678 97.2514C201.478 100.185 196.811 101.651 190.678 101.651H159.878L173.878 97.6514L155.878 188.851L143.478 185.251H182.278C186.278 185.251 189.611 185.918 192.278 187.251C195.211 188.318 197.345 190.051 198.678 192.451C200.278 194.851 201.078 197.785 201.078 201.251C201.078 206.318 199.478 210.318 196.278 213.251C193.078 215.918 188.411 217.251 182.278 217.251H137.478L151.878 214.051L139.878 272.451C138.811 278.318 136.545 282.585 133.078 285.251C129.878 287.918 125.611 289.251 120.278 289.251C114.678 289.251 110.545 287.518 107.878 284.051C105.478 280.318 104.811 275.251 105.878 268.851L116.278 217.251H65.8779L55.0779 272.451C54.0112 278.318 51.7445 282.585 48.2779 285.251C45.0779 287.918 40.8112 289.251 35.4779 289.251ZM71.8779 185.251H121.878L138.278 101.651H88.2779L71.8779 185.251Z" fill="#00FFD1"/>
</g>
</g>
<defs>
<clipPath id="clip0_115_4">
<rect width="745" height="1497" fill="#00FFD1"/>
</clipPath>
<clipPath id="clip1_115_4">
<rect width="335" height="335" fill="#00FFD1" transform="translate(381.4 1134.05)"/>
</clipPath>
<clipPath id="clip2_115_4">
<rect width="324" height="335" fill="#00FFD1" transform="matrix(-1 0 0 1 381 799)"/>
</clipPath>
<clipPath id="clip3_115_4">
<rect width="335" height="335" fill="#00FFD1" transform="translate(392 464.051)"/>
</clipPath>
<clipPath id="clip4_115_4">
<rect width="335" height="335" fill="#00FFD1" transform="translate(56.9998 129.051)"/>
</clipPath>
</defs>
</svg>
