<svg width="640" height="354" viewBox="0 0 640 354" fill="none" xmlns="http://www.w3.org/2000/svg">
<g clip-path="url(#clip0_183_5926)">
<path d="M60.31 0.5C59.6166 1.55333 59.6266 2.54333 60.34 3.47" stroke="#1A0034"/>
<path d="M79.6602 3.51C80.1002 2.61667 80.1502 1.61333 79.8102 0.5" stroke="#1A0034"/>
<path d="M320.31 0.5C319.637 1.45333 319.63 2.45333 320.29 3.5" stroke="#1A0034"/>
<path d="M320.25 20.46L319.75 20.54" stroke="#1A0034"/>
<path d="M319.75 20.54L301.15 20.53C300.804 20.53 300.534 20.6734 300.34 20.96C299.847 21.6934 299.817 22.5267 300.25 23.46" stroke="#1A0034"/>
<path d="M320.25 80.46L319.75 80.54" stroke="#1A0034"/>
<path d="M319.75 80.54L301.33 80.47C300.97 80.47 300.683 80.61 300.47 80.89C299.85 81.71 299.8 82.5666 300.32 83.46" stroke="#1A0034"/>
<path d="M319.96 100.5L320.29 103.5" stroke="#1A0034"/>
<path d="M320.25 120.46L319.75 120.54" stroke="#1A0034"/>
<path d="M319.75 120.54H281.1C280.867 120.54 280.64 120.616 280.454 120.757C280.268 120.898 280.133 121.095 280.07 121.32C279.883 122.013 279.943 122.727 280.25 123.46" stroke="#1A0034"/>
<path d="M319.96 140.5L320.29 143.5" stroke="#1A0034"/>
<path d="M319.94 180.65L300.92 180.57C300.533 180.57 300.267 180.747 300.12 181.1C299.8 181.86 299.843 182.647 300.25 183.46" stroke="#1A0034"/>
<path d="M319.71 240.5L300.01 240.8" stroke="#1A0034"/>
<path d="M299.59 223.51C300.157 222.717 300.263 221.89 299.91 221.03C299.783 220.717 299.55 220.56 299.21 220.56L240.02 220.78" stroke="#1A0034"/>
<path d="M299.66 163.53C300.126 162.783 300.163 162.033 299.77 161.28C299.655 161.063 299.484 160.882 299.274 160.756C299.064 160.631 298.823 160.567 298.58 160.57L280.01 160.81" stroke="#1A0034"/>
<path d="M279.59 143.5C280.184 142.687 280.277 141.83 279.87 140.93C279.737 140.643 279.517 140.5 279.21 140.5H221.07C220.777 140.5 220.547 140.617 220.38 140.85C219.807 141.63 219.764 142.5 220.25 143.46" stroke="#1A0034"/>
<path d="M219.75 160.46L180.04 160.75" stroke="#1A0034"/>
<path d="M179.77 123.55C180.223 122.583 180.183 121.693 179.65 120.88C179.483 120.627 179.25 120.5 178.95 120.5H160.95C160.583 120.5 160.323 120.667 160.17 121C159.777 121.82 159.817 122.653 160.29 123.5" stroke="#1A0034"/>
<path d="M159.75 140.71L120.9 140.57C120.547 140.563 120.297 140.72 120.15 141.04C119.783 141.807 119.817 142.613 120.25 143.46" stroke="#1A0034"/>
<path d="M119.96 160.75L100.87 160.62C100.497 160.613 100.24 160.783 100.1 161.13C99.8001 161.883 99.8501 162.66 100.25 163.46" stroke="#1A0034"/>
<path d="M179.75 200.71L141.16 200.49C140.8 200.49 140.52 200.64 140.32 200.94C139.8 201.713 139.773 202.563 140.24 203.49" stroke="#1A0034"/>
<path d="M139.71 240.5L120.01 240.84" stroke="#1A0034"/>
<path d="M119.71 203.56C120.243 202.533 120.177 201.617 119.51 200.81C119.29 200.537 119.007 200.403 118.66 200.41C102.46 200.637 90.3235 200.68 82.2501 200.54C80.1635 200.5 79.4868 201.483 80.2201 203.49" stroke="#1A0034"/>
<path d="M99.71 240.5L80.02 240.78" stroke="#1A0034"/>
<path d="M79.6698 223.55C80.1498 222.73 80.2331 221.897 79.9198 221.05C79.7998 220.73 79.5698 220.573 79.2298 220.58L60.0098 220.86" stroke="#1A0034"/>
<path d="M59.78 183.56C60.1 182.78 60.15 181.943 59.93 181.05C59.8434 180.697 59.62 180.523 59.26 180.53L40.02 180.84" stroke="#1A0034"/>
<path d="M39.6698 163.54C40.1498 162.727 40.2131 161.897 39.8598 161.05C39.7264 160.723 39.4831 160.56 39.1298 160.56L20.0098 160.8" stroke="#1A0034"/>
<path d="M19.68 143.51C20.08 142.763 20.1667 141.937 19.94 141.03C19.8467 140.683 19.6233 140.513 19.27 140.52L0 140.9" stroke="#1A0034"/>
<path d="M339.81 0.5L339.71 3.75" stroke="#320D57"/>
<path d="M379.56 0.5L380.29 3.5" stroke="#320D57"/>
<path d="M399.71 3.75L399.81 0.5" stroke="#320D57"/>
<path d="M640 80.56L620.92 80.53C620.553 80.53 620.297 80.6967 620.15 81.03C619.79 81.81 619.837 82.6334 620.29 83.5" stroke="#320D57"/>
<path d="M640 120.56L600.92 120.54C600.553 120.54 600.293 120.707 600.14 121.04C599.787 121.82 599.837 122.64 600.29 123.5" stroke="#320D57"/>
<path d="M640 200.56L620.82 200.54C620.467 200.54 620.223 200.707 620.09 201.04C619.777 201.813 619.83 202.62 620.25 203.46" stroke="#320D57"/>
<path d="M619.96 220.25L600.04 220.5" stroke="#320D57"/>
<path d="M599.71 203.5C600.176 202.62 600.233 201.767 599.88 200.94C599.753 200.647 599.53 200.5 599.21 200.5H580.79C580.463 200.5 580.24 200.65 580.12 200.95C579.78 201.783 579.823 202.62 580.25 203.46" stroke="#320D57"/>
<path d="M599.96 260.5L580.87 260.48C580.504 260.48 580.247 260.653 580.1 261C579.773 261.787 579.824 262.607 580.25 263.46" stroke="#320D57"/>
<path d="M579.96 280.5H560.04" stroke="#320D57"/>
<path d="M579.71 243.25C580.063 242.51 580.137 241.81 579.93 241.15C579.869 240.961 579.751 240.796 579.593 240.68C579.435 240.563 579.245 240.5 579.05 240.5H560.04" stroke="#320D57"/>
<path d="M559.96 223.75C560.193 222.81 560.16 221.913 559.86 221.06C559.727 220.687 559.463 220.5 559.07 220.5H540.79C540.463 220.5 540.24 220.65 540.12 220.95C539.767 221.797 539.823 222.647 540.29 223.5" stroke="#320D57"/>
<path d="M539.96 240.5H520.04" stroke="#320D57"/>
<path d="M579.71 183.25L580 180.5" stroke="#320D57"/>
<path d="M599.96 163.5C600.186 162.64 600.153 161.823 599.86 161.05C599.72 160.683 599.453 160.5 599.06 160.5H580.79C580.463 160.5 580.24 160.65 580.12 160.95C579.78 161.783 579.823 162.62 580.25 163.46" stroke="#320D57"/>
<path d="M580 180.5H540.04" stroke="#320D57"/>
<path d="M579.71 123.5C580.157 122.633 580.203 121.803 579.85 121.01C579.697 120.67 579.433 120.5 579.06 120.5H560.79C560.463 120.5 560.24 120.65 560.12 120.95C559.773 121.797 559.83 122.647 560.29 123.5" stroke="#320D57"/>
<path d="M559.96 140.5H540.04" stroke="#320D57"/>
<path d="M539.71 123.5C540.157 122.633 540.203 121.803 539.85 121.01C539.697 120.67 539.433 120.5 539.06 120.5H520.78C520.44 120.5 520.213 120.663 520.1 120.99C519.833 121.81 519.833 122.647 520.1 123.5" stroke="#320D57"/>
<path d="M519.96 180.5L500.97 180.49C500.597 180.483 500.33 180.65 500.17 180.99C499.79 181.783 499.83 182.62 500.29 183.5" stroke="#320D57"/>
<path d="M499.96 200.5H480.04" stroke="#320D57"/>
<path d="M479.91 143.28L479.99 141.34C479.995 141.232 479.979 141.123 479.941 141.022C479.903 140.92 479.845 140.827 479.77 140.748C479.696 140.67 479.605 140.607 479.506 140.564C479.406 140.522 479.299 140.5 479.19 140.5H460.04" stroke="#320D57"/>
<path d="M459.71 123.5C460.157 122.633 460.203 121.803 459.85 121.01C459.697 120.67 459.433 120.5 459.06 120.5H440.79C440.463 120.5 440.24 120.65 440.12 120.95C439.773 121.797 439.83 122.647 440.29 123.5" stroke="#320D57"/>
<path d="M459.96 180.5H440.04" stroke="#320D57"/>
<path d="M439.97 163.61C440.277 162.67 440.237 161.8 439.85 161C439.69 160.667 439.427 160.5 439.06 160.5H420.04" stroke="#320D57"/>
<path d="M419.71 143.25C420.177 142.437 420.213 141.673 419.82 140.96C419.64 140.64 419.367 140.48 419 140.48L360.04 140.5" stroke="#320D57"/>
<path d="M359.71 123.25C360.19 122.457 360.243 121.68 359.87 120.92C359.737 120.64 359.513 120.5 359.2 120.5H340.79C340.463 120.5 340.24 120.65 340.12 120.95C339.773 121.797 339.83 122.647 340.29 123.5" stroke="#320D57"/>
<path d="M339.96 140.5L320.04 140.25" stroke="#320D57"/>
<path d="M319.75 123.71C320.103 122.637 320.103 121.58 319.75 120.54" stroke="#320D57"/>
<path d="M339.71 103.5C340.223 102.533 340.243 101.677 339.77 100.93C339.577 100.617 339.293 100.457 338.92 100.45L320.04 100.25" stroke="#320D57"/>
<path d="M319.71 83.5C320.137 82.5134 320.15 81.5267 319.75 80.54" stroke="#320D57"/>
<path d="M339.98 43.86C340.133 42.9333 340.027 41.9767 339.66 40.99C339.533 40.6567 339.293 40.49 338.94 40.49L320.04 40.5" stroke="#320D57"/>
<path d="M319.71 23.25C320.157 22.35 320.17 21.4467 319.75 20.54" stroke="#320D57"/>
<path d="M19.71 320.5L0 320.78" stroke="#1A0034"/>
<path d="M640 340.56L620.04 340.5" stroke="#320D57"/>
<path d="M0 0.5H60.31C59.6167 1.55333 59.6267 2.54333 60.34 3.47C59.8933 8.97667 59.8167 14.51 60.11 20.07C60.1233 20.3567 60.2733 20.5 60.56 20.5H79.44C79.7267 20.5 79.8767 20.3567 79.89 20.07C80.1833 14.5567 80.1067 9.03667 79.66 3.51C80.1 2.61667 80.15 1.61333 79.81 0.5H320.31C319.637 1.45333 319.63 2.45333 320.29 3.5C319.583 9.14667 319.57 14.8 320.25 20.46L319.75 20.54L301.15 20.53C300.803 20.53 300.533 20.6733 300.34 20.96C299.847 21.6933 299.817 22.5267 300.25 23.46L300.1 60.04C300.093 60.3467 300.247 60.5 300.56 60.5H319C319.707 60.5 320.063 60.8533 320.07 61.56L320.25 80.46L319.75 80.54L301.33 80.47C300.97 80.47 300.683 80.61 300.47 80.89C299.85 81.71 299.8 82.5667 300.32 83.46C299.9 88.9333 299.827 94.4267 300.1 99.94C300.113 100.287 300.293 100.46 300.64 100.46L319.96 100.5L320.29 103.5C319.823 109.153 319.81 114.807 320.25 120.46L319.75 120.54H281.1C280.867 120.54 280.64 120.616 280.454 120.757C280.268 120.898 280.133 121.095 280.07 121.32C279.883 122.013 279.943 122.727 280.25 123.46C279.57 128.967 279.547 134.48 280.18 140C280.22 140.333 280.41 140.5 280.75 140.5H319.96L320.29 143.5L319.94 180.65L300.92 180.57C300.533 180.57 300.267 180.747 300.12 181.1C299.8 181.86 299.843 182.647 300.25 183.46L300.08 220.05C300.073 220.35 300.223 220.5 300.53 220.5H319.24C319.328 220.5 319.414 220.517 319.495 220.551C319.576 220.585 319.649 220.634 319.71 220.697C319.772 220.759 319.82 220.833 319.853 220.914C319.885 220.996 319.901 221.082 319.9 221.17L319.71 240.5L300.01 240.8L299.59 223.51C300.157 222.717 300.263 221.89 299.91 221.03C299.783 220.717 299.55 220.56 299.21 220.56L240.02 220.78L240.01 160.99C240.01 160.926 240.023 160.862 240.047 160.802C240.072 160.743 240.108 160.689 240.154 160.644C240.199 160.598 240.253 160.562 240.312 160.537C240.372 160.513 240.436 160.5 240.5 160.5H259C259.265 160.5 259.52 160.605 259.707 160.793C259.895 160.98 260 161.235 260 161.5V200C260 200.333 260.167 200.5 260.5 200.5H279.5C279.633 200.5 279.76 200.447 279.854 200.354C279.947 200.26 280 200.133 280 200V181C280 180.667 280.167 180.5 280.5 180.5H299.27C299.358 180.5 299.444 180.483 299.525 180.449C299.606 180.415 299.679 180.366 299.74 180.303C299.802 180.241 299.85 180.167 299.883 180.086C299.915 180.004 299.931 179.918 299.93 179.83L299.66 163.53C300.127 162.783 300.163 162.033 299.77 161.28C299.656 161.063 299.484 160.882 299.274 160.756C299.064 160.631 298.824 160.566 298.58 160.57L280.01 160.81L279.59 143.5C280.183 142.687 280.277 141.83 279.87 140.93C279.737 140.643 279.517 140.5 279.21 140.5H221.07C220.777 140.5 220.547 140.617 220.38 140.85C219.807 141.63 219.763 142.5 220.25 143.46L219.75 160.46L180.04 160.75L179.77 123.55C180.223 122.583 180.183 121.693 179.65 120.88C179.483 120.627 179.25 120.5 178.95 120.5H160.95C160.583 120.5 160.323 120.667 160.17 121C159.777 121.82 159.817 122.653 160.29 123.5C159.32 129.14 160.25 134.95 159.75 140.71L120.9 140.57C120.547 140.563 120.297 140.72 120.15 141.04C119.783 141.807 119.817 142.613 120.25 143.46L119.96 160.75L100.87 160.62C100.497 160.613 100.24 160.783 100.1 161.13C99.8 161.883 99.85 162.66 100.25 163.46C99.79 168.853 99.7567 174.347 100.15 179.94C100.177 180.313 100.377 180.5 100.75 180.5H139.13C139.244 180.5 139.357 180.477 139.463 180.433C139.568 180.389 139.664 180.324 139.745 180.242C139.826 180.161 139.89 180.064 139.934 179.957C139.977 179.85 140 179.736 140 179.62V161C140 160.667 140.167 160.5 140.5 160.5H158.87C159.018 160.5 159.165 160.529 159.302 160.585C159.44 160.642 159.564 160.724 159.669 160.828C159.774 160.932 159.857 161.056 159.914 161.191C159.971 161.327 160 161.473 160 161.62V180C160 180.333 160.167 180.5 160.5 180.5H179.27C179.65 180.5 179.85 180.69 179.87 181.07C180.183 187.657 180.143 194.203 179.75 200.71L141.16 200.49C140.8 200.49 140.52 200.64 140.32 200.94C139.8 201.713 139.773 202.563 140.24 203.49L139.71 240.5L120.01 240.84L119.71 203.56C120.243 202.533 120.177 201.617 119.51 200.81C119.29 200.537 119.007 200.403 118.66 200.41C102.46 200.637 90.3233 200.68 82.25 200.54C80.1633 200.5 79.4867 201.483 80.22 203.49C79.66 208.93 79.58 214.437 79.98 220.01C80.0067 220.337 80.1833 220.5 80.51 220.5H99.27C99.6433 220.5 99.84 220.687 99.86 221.06C100.2 227.573 100.15 234.053 99.71 240.5L80.02 240.78L79.67 223.55C80.15 222.73 80.2333 221.897 79.92 221.05C79.8 220.73 79.57 220.573 79.23 220.58L60.01 220.86L59.78 183.56C60.1 182.78 60.15 181.943 59.93 181.05C59.8433 180.697 59.62 180.523 59.26 180.53L40.02 180.84L39.67 163.54C40.15 162.727 40.2133 161.897 39.86 161.05C39.7267 160.723 39.4833 160.56 39.13 160.56L20.01 160.8L19.68 143.51C20.08 142.763 20.1667 141.937 19.94 141.03C19.8467 140.683 19.6233 140.513 19.27 140.52L0 140.9V0.5ZM140.29 23.5C139.883 28.9 139.82 34.3633 140.1 39.89C140.12 40.2967 140.337 40.5 140.75 40.5H159.44C159.727 40.5 159.877 40.3567 159.89 40.07C160.183 34.5567 160.103 29.04 159.65 23.52C160.157 22.72 160.223 21.8867 159.85 21.02C159.703 20.6733 159.44 20.5 159.06 20.5H141.07C140.777 20.5 140.547 20.6167 140.38 20.85C139.8 21.6367 139.77 22.52 140.29 23.5ZM100.32 43.47L100.07 60.05C100.063 60.35 100.213 60.5 100.52 60.5H119.49C119.549 60.5 119.607 60.4883 119.661 60.4656C119.715 60.4428 119.764 60.4095 119.805 60.3676C119.846 60.3257 119.878 60.276 119.899 60.2215C119.921 60.1669 119.931 60.1086 119.93 60.05L119.67 43.51C119.95 43.01 120.06 42.3833 120 41.63C119.975 41.3214 119.834 41.0337 119.606 40.8242C119.378 40.6147 119.08 40.499 118.77 40.5H101.06C100.767 40.5 100.533 40.6233 100.36 40.87C99.78 41.7033 99.7667 42.57 100.32 43.47ZM180.29 43.5C179.743 48.9 179.707 54.3867 180.18 59.96C180.213 60.32 180.41 60.5 180.77 60.5H199.34C199.78 60.5 200 60.7167 200 61.15V80C200 80.3333 200.167 80.5 200.5 80.5H219.47C219.763 80.5 219.91 80.35 219.91 80.05L219.71 43.5C220.183 42.6333 220.223 41.7967 219.83 40.99C219.67 40.6633 219.41 40.5 219.05 40.5H180.99C180.657 40.5 180.417 40.6467 180.27 40.94C179.843 41.78 179.85 42.6333 180.29 43.5ZM40.29 63.5L40.08 80.07C40.08 80.41 40.25 80.58 40.59 80.58L59.38 80.55C59.7 80.55 59.8667 80.39 59.88 80.07C60.1867 74.5567 60.1133 69.04 59.66 63.52C60.1467 62.7533 60.17 61.98 59.73 61.2C59.6121 60.9879 59.4387 60.8111 59.2277 60.688C59.0167 60.5649 58.7758 60.5 58.53 60.5H41.07C40.7767 60.5 40.5433 60.6167 40.37 60.85C39.7967 61.6367 39.77 62.52 40.29 63.5ZM80.18 63.46L80.06 120.01C80.06 120.337 80.2233 120.5 80.55 120.5H99.35C99.5224 120.5 99.6877 120.43 99.8096 120.307C99.9315 120.183 100 120.015 100 119.84V101.25C100 100.75 100.25 100.5 100.75 100.5H119.25C119.75 100.5 120 100.75 120 101.25V120C120 120.333 120.167 120.5 120.5 120.5H159.25C159.34 120.5 159.429 120.482 159.513 120.448C159.596 120.414 159.671 120.363 159.734 120.3C159.798 120.237 159.848 120.162 159.881 120.079C159.915 119.997 159.931 119.909 159.93 119.82L159.67 83.53C160.137 82.7233 160.167 81.88 159.76 81C159.62 80.6867 159.377 80.5333 159.03 80.54L100.03 80.67L99.64 63.43C100.073 62.7433 100.17 61.9367 99.93 61.01C99.8433 60.67 99.6233 60.5 99.27 60.5H81.05C80.7367 60.5 80.5 60.6333 80.34 60.9C79.8267 61.7267 79.7733 62.58 80.18 63.46ZM20.29 83.5C19.71 88.92 19.6767 94.4067 20.19 99.96C20.2233 100.32 20.4167 100.5 20.77 100.5H39.25C39.6633 100.5 39.88 100.293 39.9 99.88C40.1733 94.36 40.11 88.9 39.71 83.5C40.1167 82.6867 40.1833 81.8467 39.91 80.98C39.81 80.66 39.5933 80.5 39.26 80.5H21.07C20.7767 80.5 20.5467 80.6167 20.38 80.85C19.8 81.6367 19.77 82.52 20.29 83.5ZM200.25 103.46C199.677 108.893 199.653 114.393 200.18 119.96C200.22 120.32 200.42 120.5 200.78 120.5H219.44C219.727 120.5 219.877 120.357 219.89 120.07C220.183 114.557 220.103 109.037 219.65 103.51C220.157 102.717 220.223 101.887 219.85 101.02C219.703 100.673 219.44 100.5 219.06 100.5H201.07C200.777 100.5 200.543 100.617 200.37 100.85C199.81 101.623 199.77 102.493 200.25 103.46ZM260.25 103.46C259.83 108.873 259.79 114.357 260.13 119.91C260.15 120.303 260.36 120.5 260.76 120.5H279.41C279.548 120.5 279.68 120.444 279.778 120.345C279.875 120.245 279.93 120.111 279.93 119.97L279.65 103.51C280.157 102.717 280.223 101.887 279.85 101.02C279.703 100.673 279.44 100.5 279.06 100.5H261.18C260.82 100.5 260.54 100.65 260.34 100.95C259.853 101.71 259.823 102.547 260.25 103.46ZM20.31 123.47L20.07 140.04C20.0633 140.347 20.2133 140.5 20.52 140.5H39.26C39.3488 140.5 39.4368 140.482 39.5187 140.448C39.6007 140.414 39.675 140.364 39.7373 140.3C39.7997 140.237 39.8488 140.162 39.8819 140.079C39.915 139.997 39.9313 139.909 39.93 139.82L39.66 123.51C40.2333 122.57 40.2233 121.687 39.63 120.86C39.4567 120.62 39.2267 120.5 38.94 120.5H21.24C20.9067 120.5 20.6433 120.637 20.45 120.91C19.8567 121.75 19.81 122.603 20.31 123.47ZM100.29 123.5L100.08 140.06C100.08 140.353 100.227 140.5 100.52 140.5H119.28C119.447 140.5 119.607 140.434 119.725 140.315C119.844 140.197 119.91 140.037 119.91 139.87L119.71 123.5C120.117 122.687 120.183 121.847 119.91 120.98C119.81 120.66 119.593 120.5 119.26 120.5H100.95C100.583 120.5 100.323 120.667 100.17 121C99.7767 121.82 99.8167 122.653 100.29 123.5ZM40.25 143.46L40.01 160.02C40.0087 160.083 40.0201 160.145 40.0436 160.203C40.0672 160.261 40.1023 160.314 40.147 160.359C40.1917 160.403 40.2451 160.439 40.304 160.463C40.3629 160.487 40.4261 160.5 40.49 160.5H59C59.2652 160.5 59.5196 160.605 59.7071 160.793C59.8946 160.98 60 161.235 60 161.5V180C60 180.333 60.1667 180.5 60.5 180.5H79.5C79.6326 180.5 79.7598 180.447 79.8536 180.354C79.9473 180.26 80 180.133 80 180V161C80 160.667 80.1667 160.5 80.5 160.5H99.27C99.3588 160.5 99.4468 160.482 99.5287 160.448C99.6107 160.414 99.685 160.364 99.7473 160.3C99.8097 160.237 99.8588 160.162 99.8919 160.079C99.925 159.997 99.9413 159.909 99.94 159.82L99.71 143.55C100.177 142.703 100.233 141.837 99.88 140.95C99.76 140.65 99.5367 140.5 99.21 140.5H40.95C40.5833 140.5 40.32 140.667 40.16 141C39.7867 141.813 39.8167 142.633 40.25 143.46Z" fill="#1A0034"/>
<path d="M19.71 320.5L0 320.78V300.69L19.34 300.56C19.4798 300.56 19.6142 300.614 19.7149 300.711C19.8157 300.808 19.8748 300.94 19.88 301.08C20.1667 307.593 20.11 314.067 19.71 320.5Z" fill="#1A0034"/>
<path d="M339.81 0.5H379.56L380.29 3.5L380.08 20.05C380.073 20.35 380.22 20.5 380.52 20.5H399.48C399.78 20.5 399.927 20.35 399.92 20.05L399.71 3.75L399.81 0.5H640V80.56L620.92 80.53C620.553 80.53 620.297 80.6967 620.15 81.03C619.79 81.81 619.837 82.6333 620.29 83.5C619.87 88.9533 619.813 94.4067 620.12 99.86C620.14 100.247 620.343 100.44 620.73 100.44L640 100.56V120.56L600.92 120.54C600.553 120.54 600.293 120.707 600.14 121.04C599.787 121.82 599.837 122.64 600.29 123.5C599.89 128.887 599.827 134.35 600.1 139.89C600.12 140.297 600.337 140.5 600.75 140.5H619.5C619.633 140.5 619.76 140.553 619.854 140.646C619.947 140.74 620 140.867 620 141V180C620 180.367 620.18 180.55 620.54 180.55L640 180.81V200.56L620.82 200.54C620.467 200.54 620.223 200.707 620.09 201.04C619.777 201.813 619.83 202.62 620.25 203.46L619.96 220.25L600.04 220.5L599.71 203.5C600.177 202.62 600.233 201.767 599.88 200.94C599.753 200.647 599.53 200.5 599.21 200.5H580.79C580.463 200.5 580.24 200.65 580.12 200.95C579.78 201.783 579.823 202.62 580.25 203.46L580.08 240.05C580.073 240.35 580.223 240.5 580.53 240.5H599.5C599.63 240.5 599.755 240.552 599.846 240.644C599.938 240.735 599.99 240.86 599.99 240.99L599.96 260.5L580.87 260.48C580.503 260.48 580.247 260.653 580.1 261C579.773 261.787 579.823 262.607 580.25 263.46L579.96 280.5H560.04L560.01 260.99C560.01 260.86 560.062 260.735 560.153 260.644C560.245 260.552 560.37 260.5 560.5 260.5H579.48C579.78 260.5 579.927 260.35 579.92 260.05L579.71 243.25C580.063 242.51 580.137 241.81 579.93 241.15C579.869 240.961 579.751 240.796 579.593 240.68C579.434 240.563 579.244 240.5 579.05 240.5H560.04L559.96 223.75C560.193 222.81 560.16 221.913 559.86 221.06C559.727 220.687 559.463 220.5 559.07 220.5H540.79C540.463 220.5 540.24 220.65 540.12 220.95C539.767 221.797 539.823 222.647 540.29 223.5L539.96 240.5H520.04L520.01 220.99C520.01 220.86 520.062 220.735 520.153 220.644C520.245 220.552 520.37 220.5 520.5 220.5H539.5C539.833 220.5 540 220.333 540 220V201C540 200.867 540.053 200.74 540.146 200.646C540.24 200.553 540.367 200.5 540.5 200.5H579.48C579.78 200.5 579.927 200.35 579.92 200.05L579.71 183.25L580 180.5L599.45 180.51C599.837 180.517 600.03 180.323 600.03 179.93L599.96 163.5C600.187 162.64 600.153 161.823 599.86 161.05C599.72 160.683 599.453 160.5 599.06 160.5H580.79C580.463 160.5 580.24 160.65 580.12 160.95C579.78 161.783 579.823 162.62 580.25 163.46L580 180.5H540.04L540.01 160.99C540.01 160.926 540.023 160.862 540.047 160.802C540.072 160.743 540.108 160.689 540.153 160.644C540.199 160.598 540.253 160.562 540.312 160.537C540.372 160.513 540.436 160.5 540.5 160.5H579.47C579.77 160.5 579.917 160.35 579.91 160.05L579.71 123.5C580.157 122.633 580.203 121.803 579.85 121.01C579.697 120.67 579.433 120.5 579.06 120.5H560.79C560.463 120.5 560.24 120.65 560.12 120.95C559.773 121.797 559.83 122.647 560.29 123.5L559.96 140.5H540.04L539.71 123.5C540.157 122.633 540.203 121.803 539.85 121.01C539.697 120.67 539.433 120.5 539.06 120.5H520.78C520.44 120.5 520.213 120.663 520.1 120.99C519.833 121.81 519.833 122.647 520.1 123.5L519.96 180.5L500.97 180.49C500.597 180.483 500.33 180.65 500.17 180.99C499.79 181.783 499.83 182.62 500.29 183.5L499.96 200.5H480.04L479.91 143.28L479.99 141.34C479.995 141.232 479.979 141.123 479.941 141.022C479.903 140.92 479.845 140.827 479.77 140.748C479.695 140.67 479.605 140.607 479.506 140.564C479.406 140.522 479.298 140.5 479.19 140.5H460.04L459.71 123.5C460.157 122.633 460.203 121.803 459.85 121.01C459.697 120.67 459.433 120.5 459.06 120.5H440.79C440.463 120.5 440.24 120.65 440.12 120.95C439.773 121.797 439.83 122.647 440.29 123.5L440.09 160.06C440.09 160.353 440.237 160.5 440.53 160.5H459.5C459.564 160.5 459.628 160.513 459.687 160.537C459.747 160.562 459.801 160.598 459.846 160.644C459.892 160.689 459.928 160.743 459.953 160.802C459.977 160.862 459.99 160.926 459.99 160.99L459.96 180.5H440.04L439.97 163.61C440.277 162.67 440.237 161.8 439.85 161C439.69 160.667 439.427 160.5 439.06 160.5H420.04L419.71 143.25C420.177 142.437 420.213 141.673 419.82 140.96C419.64 140.64 419.367 140.48 419 140.48L360.04 140.5L359.71 123.25C360.19 122.457 360.243 121.68 359.87 120.92C359.737 120.64 359.513 120.5 359.2 120.5H340.79C340.463 120.5 340.24 120.65 340.12 120.95C339.773 121.797 339.83 122.647 340.29 123.5L339.96 140.5L320.04 140.25L319.75 123.71C320.103 122.637 320.103 121.58 319.75 120.54L320.25 120.46L339.39 120.53C339.75 120.53 339.93 120.35 339.93 119.99L339.71 103.5C340.223 102.533 340.243 101.677 339.77 100.93C339.577 100.617 339.293 100.457 338.92 100.45L320.04 100.25L319.71 83.5C320.137 82.5133 320.15 81.5267 319.75 80.54L320.25 80.46L339.41 80.53C339.783 80.53 339.97 80.3433 339.97 79.97L339.98 43.86C340.133 42.9333 340.027 41.9767 339.66 40.99C339.533 40.6567 339.293 40.49 338.94 40.49L320.04 40.5L319.71 23.25C320.157 22.35 320.17 21.4467 319.75 20.54L320.25 20.46L339.39 20.53C339.75 20.53 339.93 20.35 339.93 19.99L339.71 3.75L339.81 0.5ZM480.29 23.5L480.08 40.05C480.073 40.35 480.22 40.5 480.52 40.5H499.48C499.78 40.5 499.927 40.35 499.92 40.05L499.71 23.5C500.17 22.62 500.227 21.7667 499.88 20.94C499.753 20.6467 499.53 20.5 499.21 20.5H480.94C480.56 20.5 480.297 20.6733 480.15 21.02C479.797 21.8333 479.843 22.66 480.29 23.5ZM560.29 23.5L560.08 40.05C560.073 40.35 560.22 40.5 560.52 40.5H579.48C579.78 40.5 579.927 40.35 579.92 40.05L579.71 23.5C580.17 22.62 580.227 21.7667 579.88 20.94C579.753 20.6467 579.53 20.5 579.21 20.5H560.94C560.56 20.5 560.297 20.6733 560.15 21.02C559.797 21.8333 559.843 22.66 560.29 23.5ZM400.29 43.5C399.883 48.88 399.82 54.3433 400.1 59.89C400.12 60.2967 400.333 60.5 400.74 60.5H419.5C419.833 60.5 420 60.6667 420 61V80C420 80.3333 420.167 80.5 420.5 80.5H439.5C439.833 80.5 440 80.3333 440 80V61C440 60.8674 440.053 60.7402 440.146 60.6464C440.24 60.5527 440.367 60.5 440.5 60.5H459.49C459.817 60.5 459.98 60.3367 459.98 60.01L459.96 43.75C460.267 42.7433 460.233 41.8367 459.86 41.03C459.7 40.6767 459.427 40.5 459.04 40.5H400.79C400.47 40.5 400.25 40.6467 400.13 40.94C399.763 41.7933 399.817 42.6467 400.29 43.5ZM360.29 63.5L360.08 80.05C360.073 80.35 360.22 80.5 360.52 80.5H379.48C379.787 80.5 379.937 80.3467 379.93 80.04L379.75 63.46C380.157 62.6067 380.19 61.7933 379.85 61.02C379.703 60.6733 379.44 60.5 379.06 60.5H360.94C360.56 60.5 360.297 60.6733 360.15 61.02C359.797 61.8333 359.843 62.66 360.29 63.5ZM520.29 63.5L520.08 80.05C520.08 80.35 520.227 80.5 520.52 80.5H539.49C539.817 80.5 539.98 80.3367 539.98 80.01L539.96 63.75C540.193 62.81 540.16 61.9133 539.86 61.06C539.727 60.6867 539.463 60.5 539.07 60.5H520.94C520.56 60.5 520.297 60.6733 520.15 61.02C519.797 61.8333 519.843 62.66 520.29 63.5ZM400.29 83.5C399.89 88.8867 399.827 94.35 400.1 99.89C400.12 100.297 400.337 100.5 400.75 100.5H419.47C419.77 100.5 419.92 100.35 419.92 100.05L419.71 83.25C420.19 82.4567 420.243 81.68 419.87 80.92C419.737 80.64 419.513 80.5 419.2 80.5H400.79C400.463 80.5 400.24 80.65 400.12 80.95C399.773 81.7967 399.83 82.6467 400.29 83.5ZM440.29 83.5L440.08 100.05C440.073 100.35 440.22 100.5 440.52 100.5H459.48C459.78 100.5 459.927 100.35 459.92 100.05L459.71 83.5C460.157 82.6333 460.203 81.8033 459.85 81.01C459.697 80.67 459.433 80.5 459.06 80.5H440.79C440.463 80.5 440.24 80.65 440.12 80.95C439.773 81.7967 439.83 82.6467 440.29 83.5ZM480.29 83.5C479.883 88.8667 479.82 94.3333 480.1 99.9C480.12 100.3 480.333 100.5 480.74 100.5H519.48C519.78 100.5 519.927 100.35 519.92 100.05L519.71 83.25C520.197 82.4567 520.25 81.6767 519.87 80.91C519.73 80.6367 519.507 80.5 519.2 80.5H480.79C480.47 80.5 480.247 80.6467 480.12 80.94C479.767 81.7933 479.823 82.6467 480.29 83.5ZM560.29 83.5L560.08 100.05C560.073 100.35 560.22 100.5 560.52 100.5H599.48C599.78 100.5 599.927 100.35 599.92 100.05L599.71 83.25C600.197 82.4567 600.25 81.6767 599.87 80.91C599.73 80.6367 599.507 80.5 599.2 80.5H560.79C560.47 80.5 560.247 80.6467 560.12 80.94C559.767 81.7933 559.823 82.6467 560.29 83.5ZM360.29 103.5L360.08 120.05C360.073 120.35 360.22 120.5 360.52 120.5H379.48C379.787 120.5 379.937 120.347 379.93 120.04L379.75 103.46C380.083 102.653 380.123 101.823 379.87 100.97C379.783 100.657 379.577 100.5 379.25 100.5H360.94C360.56 100.5 360.293 100.677 360.14 101.03C359.8 101.837 359.85 102.66 360.29 103.5ZM480.29 123.5L480.08 140.05C480.073 140.35 480.22 140.5 480.52 140.5H499.48C499.78 140.5 499.927 140.35 499.92 140.05L499.71 123.5C500.157 122.633 500.203 121.803 499.85 121.01C499.697 120.67 499.433 120.5 499.06 120.5H480.79C480.463 120.5 480.24 120.65 480.12 120.95C479.773 121.797 479.83 122.647 480.29 123.5ZM600.29 183.5L600.08 200.05C600.073 200.35 600.22 200.5 600.52 200.5H619.48C619.78 200.5 619.927 200.35 619.92 200.05L619.71 183.25C620.19 182.457 620.243 181.68 619.87 180.92C619.737 180.64 619.513 180.5 619.2 180.5H600.79C600.463 180.5 600.24 180.65 600.12 180.95C599.773 181.797 599.83 182.647 600.29 183.5Z" fill="#320D57"/>
<path d="M640 300.81V340.56L620.04 340.5L620.08 301.23C620.08 300.843 620.27 300.643 620.65 300.63C627.103 300.303 633.553 300.363 640 300.81Z" fill="#320D57"/>
<path d="M60.31 0.5H79.81C80.15 1.61333 80.1 2.61667 79.66 3.51L60.34 3.47C59.6266 2.54333 59.6166 1.55333 60.31 0.5Z" fill="#00FFD1"/>
<path d="M320.31 0.5H339.81L339.71 3.75C333.243 3.32333 326.77 3.24 320.29 3.5C319.63 2.45333 319.637 1.45333 320.31 0.5Z" fill="#00FFD1"/>
<path d="M379.56 0.5H399.81L399.71 3.75L380.29 3.5L379.56 0.5Z" fill="#00FFD1"/>
<path d="M319.75 20.54C320.17 21.4467 320.157 22.35 319.71 23.25L300.25 23.46C299.817 22.5267 299.847 21.6934 300.34 20.96C300.534 20.6734 300.804 20.53 301.15 20.53L319.75 20.54Z" fill="#00FFD1"/>
<path d="M320.04 40.5L338.94 40.49C339.293 40.49 339.533 40.6567 339.66 40.99C340.027 41.9767 340.133 42.9333 339.98 43.86C334.087 43.4533 328.193 43.33 322.3 43.49C320.11 43.54 319.37 42.67 320.04 40.5Z" fill="#00FFD1"/>
<path d="M319.75 80.54C320.15 81.5266 320.137 82.5133 319.71 83.5L300.32 83.46C299.8 82.5666 299.85 81.71 300.47 80.89C300.683 80.61 300.97 80.47 301.33 80.47L319.75 80.54Z" fill="#00FFD1"/>
<path d="M640 80.56V83.31L620.29 83.5C619.837 82.6334 619.79 81.81 620.15 81.03C620.297 80.6967 620.553 80.53 620.92 80.53L640 80.56Z" fill="#00FFD1"/>
<path d="M320.04 100.25L338.92 100.45C339.293 100.457 339.577 100.617 339.77 100.93C340.243 101.677 340.223 102.533 339.71 103.5H320.29L319.96 100.5C319.987 100.42 320.013 100.337 320.04 100.25Z" fill="#00FFD1"/>
<path d="M179.77 123.55L160.29 123.5C159.817 122.653 159.777 121.82 160.17 121C160.323 120.667 160.583 120.5 160.95 120.5H178.95C179.25 120.5 179.483 120.627 179.65 120.88C180.183 121.693 180.223 122.583 179.77 123.55Z" fill="#00FFD1"/>
<path d="M319.75 120.54C320.103 121.58 320.103 122.637 319.75 123.71C306.583 123.223 293.416 123.14 280.25 123.46C279.943 122.727 279.883 122.013 280.07 121.32C280.133 121.095 280.268 120.898 280.454 120.757C280.64 120.616 280.867 120.54 281.1 120.54H319.75Z" fill="#00FFD1"/>
<path d="M359.71 123.25L340.29 123.5C339.83 122.647 339.773 121.797 340.12 120.95C340.24 120.65 340.463 120.5 340.79 120.5H359.2C359.513 120.5 359.737 120.64 359.87 120.92C360.243 121.68 360.19 122.457 359.71 123.25Z" fill="#00FFD1"/>
<path d="M459.71 123.5H440.29C439.83 122.647 439.773 121.797 440.12 120.95C440.24 120.65 440.463 120.5 440.79 120.5H459.06C459.433 120.5 459.697 120.67 459.85 121.01C460.203 121.803 460.157 122.633 459.71 123.5Z" fill="#00FFD1"/>
<path d="M539.71 123.5H520.1C519.833 122.647 519.833 121.81 520.1 120.99C520.213 120.663 520.44 120.5 520.78 120.5H539.06C539.433 120.5 539.697 120.67 539.85 121.01C540.203 121.803 540.157 122.633 539.71 123.5Z" fill="#00FFD1"/>
<path d="M579.71 123.5H560.29C559.83 122.647 559.773 121.797 560.12 120.95C560.24 120.65 560.463 120.5 560.79 120.5H579.06C579.433 120.5 579.697 120.67 579.85 121.01C580.203 121.803 580.157 122.633 579.71 123.5Z" fill="#00FFD1"/>
<path d="M640 120.56V123.31L600.29 123.5C599.837 122.64 599.787 121.82 600.14 121.04C600.293 120.707 600.553 120.54 600.92 120.54L640 120.56Z" fill="#00FFD1"/>
<path d="M320.04 140.25L339.96 140.5C340.127 141.333 340.117 142.147 339.93 142.94C339.85 143.3 339.627 143.48 339.26 143.48L320.29 143.5L319.96 140.5C319.987 140.42 320.013 140.337 320.04 140.25Z" fill="#00FFD1"/>
<path d="M19.68 143.51L0 142.99V140.9L19.27 140.52C19.6233 140.513 19.8467 140.683 19.94 141.03C20.1667 141.937 20.08 142.763 19.68 143.51Z" fill="#00FFD1"/>
<path d="M159.75 140.71C160.083 141.39 160.147 142.07 159.94 142.75C159.847 143.063 159.637 143.227 159.31 143.24C146.25 143.76 133.29 143.09 120.25 143.46C119.817 142.613 119.783 141.807 120.15 141.04C120.297 140.72 120.547 140.563 120.9 140.57L159.75 140.71Z" fill="#00FFD1"/>
<path d="M279.59 143.5L220.25 143.46C219.764 142.5 219.807 141.63 220.38 140.85C220.547 140.617 220.777 140.5 221.07 140.5H279.21C279.517 140.5 279.737 140.643 279.87 140.93C280.277 141.83 280.184 142.687 279.59 143.5Z" fill="#00FFD1"/>
<path d="M360.04 140.5L419 140.48C419.367 140.48 419.64 140.64 419.82 140.96C420.213 141.673 420.177 142.437 419.71 143.25C391.437 143.677 371.95 143.76 361.25 143.5C359.817 143.467 359.413 142.467 360.04 140.5Z" fill="#00FFD1"/>
<path d="M460.04 140.5H479.19C479.298 140.5 479.406 140.522 479.506 140.564C479.605 140.607 479.695 140.67 479.77 140.748C479.845 140.827 479.903 140.92 479.941 141.022C479.979 141.123 479.995 141.232 479.99 141.34L479.91 143.28C473.37 143.653 466.987 143.683 460.76 143.37C460.38 143.35 460.15 143.157 460.07 142.79C459.903 142.043 459.893 141.28 460.04 140.5Z" fill="#00FFD1"/>
<path d="M540.04 140.5H559.96C560.12 141.313 560.11 142.137 559.93 142.97C559.856 143.323 559.64 143.5 559.28 143.5H540.94C540.546 143.5 540.28 143.317 540.14 142.95C539.846 142.177 539.813 141.36 540.04 140.5Z" fill="#00FFD1"/>
<path d="M39.6701 163.54L21.0101 163.36C20.6434 163.353 20.3734 163.193 20.2001 162.88C19.9201 162.373 19.8568 161.68 20.0101 160.8L39.1301 160.56C39.4834 160.56 39.7268 160.723 39.8601 161.05C40.2134 161.897 40.1501 162.727 39.6701 163.54Z" fill="#00FFD1"/>
<path d="M119.96 160.75C120.24 161.663 120.173 162.443 119.76 163.09C119.56 163.41 119.273 163.567 118.9 163.56L100.25 163.46C99.8501 162.66 99.8001 161.883 100.1 161.13C100.24 160.783 100.497 160.613 100.87 160.62L119.96 160.75Z" fill="#00FFD1"/>
<path d="M219.75 160.46C220.217 161.34 220.25 162.217 219.85 163.09C219.723 163.377 219.503 163.52 219.19 163.52L181 163.44C180.607 163.44 180.32 163.263 180.14 162.91C179.807 162.27 179.773 161.55 180.04 160.75L219.75 160.46Z" fill="#00FFD1"/>
<path d="M299.66 163.53L280.98 163.34C280.62 163.333 280.357 163.173 280.19 162.86C279.924 162.353 279.864 161.67 280.01 160.81L298.58 160.57C298.824 160.567 299.064 160.631 299.274 160.756C299.484 160.882 299.656 161.063 299.77 161.28C300.164 162.033 300.127 162.783 299.66 163.53Z" fill="#00FFD1"/>
<path d="M420.04 160.5H439.06C439.427 160.5 439.69 160.667 439.85 161C440.237 161.8 440.277 162.67 439.97 163.61L420.65 163.49C420.25 163.483 420.05 163.28 420.05 162.88L420.04 160.5Z" fill="#00FFD1"/>
<path d="M599.96 163.5L580.25 163.46C579.823 162.62 579.78 161.783 580.12 160.95C580.24 160.65 580.463 160.5 580.79 160.5H599.06C599.453 160.5 599.72 160.683 599.86 161.05C600.153 161.823 600.186 162.64 599.96 163.5Z" fill="#00FFD1"/>
<path d="M59.7799 183.56C53.3066 183.36 47.0666 183.32 41.0599 183.44C39.9332 183.46 39.5866 182.593 40.0199 180.84L59.2599 180.53C59.6199 180.523 59.8432 180.697 59.9299 181.05C60.1499 181.943 60.0999 182.78 59.7799 183.56Z" fill="#00FFD1"/>
<path d="M319.94 180.65C320.12 181.457 320.117 182.23 319.93 182.97C319.837 183.343 319.597 183.53 319.21 183.53L300.25 183.46C299.843 182.647 299.8 181.86 300.12 181.1C300.267 180.747 300.533 180.57 300.92 180.57L319.94 180.65Z" fill="#00FFD1"/>
<path d="M440.04 180.5H459.96C460.106 181.313 460.08 182.143 459.88 182.99C459.8 183.33 459.586 183.5 459.24 183.5C453.613 183.5 447.963 183.503 442.29 183.51C440.12 183.51 439.37 182.69 440.04 180.5Z" fill="#00FFD1"/>
<path d="M519.96 180.5C520.127 181.333 520.117 182.147 519.93 182.94C519.85 183.3 519.627 183.48 519.26 183.48L500.29 183.5C499.83 182.62 499.79 181.783 500.17 180.99C500.33 180.65 500.597 180.483 500.97 180.49L519.96 180.5Z" fill="#00FFD1"/>
<path d="M540.04 180.5H580L579.71 183.25C561.25 183.67 548.43 183.753 541.25 183.5C539.823 183.447 539.42 182.447 540.04 180.5Z" fill="#00FFD1"/>
<path d="M119.71 203.56L80.2201 203.49C79.4868 201.483 80.1635 200.5 82.2501 200.54C90.3235 200.68 102.46 200.637 118.66 200.41C119.007 200.403 119.29 200.537 119.51 200.81C120.177 201.617 120.243 202.533 119.71 203.56Z" fill="#00FFD1"/>
<path d="M179.75 200.71C180.176 201.517 180.21 202.27 179.85 202.97C179.683 203.29 179.42 203.45 179.06 203.45L140.24 203.49C139.773 202.563 139.8 201.713 140.32 200.94C140.52 200.64 140.8 200.49 141.16 200.49L179.75 200.71Z" fill="#00FFD1"/>
<path d="M480.04 200.5H499.96C500.12 201.307 500.11 202.13 499.93 202.97C499.857 203.323 499.64 203.5 499.28 203.5H480.93C480.503 203.5 480.21 203.303 480.05 202.91C479.763 202.21 479.76 201.407 480.04 200.5Z" fill="#00FFD1"/>
<path d="M599.71 203.5L580.25 203.46C579.823 202.62 579.78 201.783 580.12 200.95C580.24 200.65 580.463 200.5 580.79 200.5H599.21C599.53 200.5 599.753 200.647 599.88 200.94C600.233 201.767 600.176 202.62 599.71 203.5Z" fill="#00FFD1"/>
<path d="M640 200.56V203.31L620.25 203.46C619.83 202.62 619.777 201.813 620.09 201.04C620.223 200.707 620.467 200.54 620.82 200.54L640 200.56Z" fill="#00FFD1"/>
<path d="M619.96 220.25L619.93 222.9C619.923 223.3 619.723 223.5 619.33 223.5H601.03C600.71 223.5 600.46 223.367 600.28 223.1C599.806 222.373 599.726 221.507 600.04 220.5L619.96 220.25Z" fill="#00FFD1"/>
<path d="M79.6702 223.55C73.3235 223.383 67.1202 223.347 61.0602 223.44C59.9402 223.453 59.5902 222.593 60.0102 220.86L79.2302 220.58C79.5702 220.573 79.8002 220.73 79.9202 221.05C80.2335 221.897 80.1502 222.73 79.6702 223.55Z" fill="#00FFD1"/>
<path d="M299.59 223.51C280.064 223.497 260.617 223.493 241.25 223.5C240.03 223.5 239.62 222.593 240.02 220.78L299.21 220.56C299.55 220.56 299.784 220.717 299.91 221.03C300.264 221.89 300.157 222.717 299.59 223.51Z" fill="#00FFD1"/>
<path d="M559.96 223.75L540.29 223.5C539.823 222.647 539.767 221.797 540.12 220.95C540.24 220.65 540.463 220.5 540.79 220.5H559.07C559.463 220.5 559.727 220.687 559.86 221.06C560.16 221.913 560.193 222.81 559.96 223.75Z" fill="#00FFD1"/>
<path d="M99.7099 240.5C100.07 241.333 100.137 242.043 99.9099 242.63C99.6699 243.25 99.2165 243.553 98.5499 243.54C92.3632 243.413 86.5932 243.4 81.2399 243.5C80.0265 243.52 79.6199 242.613 80.0199 240.78L99.7099 240.5Z" fill="#00FFD1"/>
<path d="M139.71 240.5C140.177 241.34 140.234 242.213 139.88 243.12C139.747 243.453 139.504 243.613 139.15 243.6C133.324 243.353 127.514 243.3 121.72 243.44C119.86 243.49 119.66 242.42 120.01 240.84L139.71 240.5Z" fill="#00FFD1"/>
<path d="M319.71 240.5C320.19 241.333 320.25 242.17 319.89 243.01C319.757 243.337 319.513 243.5 319.16 243.5C313.32 243.5 307.49 243.5 301.67 243.5C299.78 243.5 299.69 242.34 300.01 240.8L319.71 240.5Z" fill="#00FFD1"/>
<path d="M520.04 240.5H539.96C540.107 241.327 540.08 242.163 539.88 243.01C539.8 243.337 539.593 243.5 539.26 243.5H520.94C520.546 243.5 520.28 243.317 520.14 242.95C519.846 242.177 519.813 241.36 520.04 240.5Z" fill="#00FFD1"/>
<path d="M560.04 240.5H579.05C579.245 240.5 579.435 240.563 579.593 240.68C579.751 240.796 579.869 240.961 579.93 241.15C580.137 241.81 580.063 242.51 579.71 243.25L560.84 243.44C560.473 243.447 560.213 243.283 560.06 242.95C559.74 242.257 559.733 241.44 560.04 240.5Z" fill="#00FFD1"/>
<path d="M599.96 260.5C600.127 261.327 600.12 262.137 599.94 262.93C599.854 263.29 599.627 263.47 599.26 263.47L580.25 263.46C579.824 262.607 579.773 261.787 580.1 261C580.247 260.653 580.504 260.48 580.87 260.48L599.96 260.5Z" fill="#00FFD1"/>
<path d="M560.04 280.5H579.96C580.12 281.307 580.11 282.13 579.93 282.97C579.857 283.323 579.64 283.5 579.28 283.5H560.93C560.503 283.5 560.21 283.303 560.05 282.91C559.763 282.21 559.76 281.407 560.04 280.5Z" fill="#00FFD1"/>
<path d="M19.71 320.5C20.1033 321.287 20.1767 322.1 19.93 322.94C19.8433 323.247 19.64 323.407 19.32 323.42C12.8667 323.667 6.42667 323.56 0 323.1V320.78L19.71 320.5Z" fill="#00FFD1"/>
<path d="M620.04 340.5L640 340.56V343.31L620.89 343.44C620.523 343.44 620.273 343.27 620.14 342.93C619.84 342.19 619.806 341.38 620.04 340.5Z" fill="#00FFD1"/>
<path d="M159.65 23.52C160.157 22.72 160.223 21.8867 159.85 21.02C159.703 20.6733 159.44 20.5 159.06 20.5H141.07C140.777 20.5 140.547 20.6167 140.38 20.85C139.8 21.6367 139.77 22.52 140.29 23.5" stroke="#1A0034"/>
<path d="M119.67 43.51C119.95 43.01 120.06 42.3833 120 41.63C119.975 41.3214 119.834 41.0337 119.606 40.8242C119.378 40.6148 119.08 40.499 118.77 40.5H101.06C100.767 40.5 100.534 40.6233 100.36 40.87C99.7803 41.7033 99.7669 42.57 100.32 43.47" stroke="#1A0034"/>
<path d="M219.71 43.5C220.183 42.6333 220.223 41.7967 219.83 40.99C219.67 40.6633 219.41 40.5 219.05 40.5H180.99C180.657 40.5 180.417 40.6467 180.27 40.94C179.843 41.78 179.85 42.6333 180.29 43.5" stroke="#1A0034"/>
<path d="M59.6599 63.52C60.1466 62.7533 60.1699 61.98 59.7299 61.2C59.612 60.9879 59.4386 60.8111 59.2276 60.688C59.0166 60.5649 58.7757 60.5 58.5299 60.5H41.0699C40.7766 60.5 40.5433 60.6167 40.3699 60.85C39.7966 61.6367 39.7699 62.52 40.2899 63.5" stroke="#1A0034"/>
<path d="M159.67 83.53C160.137 82.7233 160.167 81.88 159.76 81C159.62 80.6867 159.377 80.5333 159.03 80.54L100.03 80.67" stroke="#1A0034"/>
<path d="M99.6403 63.43C100.074 62.7433 100.17 61.9367 99.9303 61.01C99.8436 60.67 99.6236 60.5 99.2703 60.5H81.0503C80.737 60.5 80.5003 60.6333 80.3403 60.9C79.8269 61.7267 79.7736 62.58 80.1803 63.46" stroke="#1A0034"/>
<path d="M39.7101 83.5C40.1168 82.6867 40.1834 81.8467 39.9101 80.98C39.8101 80.66 39.5934 80.5 39.2601 80.5H21.0701C20.7768 80.5 20.5468 80.6167 20.3801 80.85C19.8001 81.6367 19.7701 82.52 20.2901 83.5" stroke="#1A0034"/>
<path d="M219.65 103.51C220.157 102.717 220.224 101.887 219.85 101.02C219.704 100.673 219.44 100.5 219.06 100.5H201.07C200.777 100.5 200.544 100.617 200.37 100.85C199.81 101.623 199.77 102.493 200.25 103.46" stroke="#1A0034"/>
<path d="M279.65 103.51C280.157 102.717 280.223 101.887 279.85 101.02C279.703 100.673 279.44 100.5 279.06 100.5H261.18C260.82 100.5 260.54 100.65 260.34 100.95C259.853 101.71 259.823 102.547 260.25 103.46" stroke="#1A0034"/>
<path d="M39.6603 123.51C40.2336 122.57 40.2236 121.687 39.6303 120.86C39.4569 120.62 39.2269 120.5 38.9403 120.5H21.2403C20.9069 120.5 20.6436 120.637 20.4503 120.91C19.8569 121.75 19.8103 122.603 20.3103 123.47" stroke="#1A0034"/>
<path d="M119.71 123.5C120.117 122.687 120.183 121.847 119.91 120.98C119.81 120.66 119.593 120.5 119.26 120.5H100.95C100.583 120.5 100.323 120.667 100.17 121C99.7768 121.82 99.8168 122.653 100.29 123.5" stroke="#1A0034"/>
<path d="M99.7101 143.55C100.177 142.703 100.233 141.837 99.8801 140.95C99.7601 140.65 99.5367 140.5 99.2101 140.5H40.9501C40.5834 140.5 40.3201 140.667 40.1601 141C39.7867 141.813 39.8167 142.633 40.2501 143.46" stroke="#1A0034"/>
<path d="M499.71 23.5C500.17 22.62 500.227 21.7667 499.88 20.94C499.753 20.6467 499.53 20.5 499.21 20.5H480.94C480.56 20.5 480.297 20.6733 480.15 21.02C479.797 21.8333 479.843 22.66 480.29 23.5" stroke="#320D57"/>
<path d="M579.71 23.5C580.17 22.62 580.227 21.7667 579.88 20.94C579.753 20.6467 579.53 20.5 579.21 20.5H560.94C560.56 20.5 560.297 20.6733 560.15 21.02C559.797 21.8333 559.843 22.66 560.29 23.5" stroke="#320D57"/>
<path d="M459.96 43.75C460.267 42.7433 460.234 41.8367 459.86 41.03C459.7 40.6767 459.427 40.5 459.04 40.5H400.79C400.47 40.5 400.25 40.6467 400.13 40.94C399.764 41.7933 399.817 42.6467 400.29 43.5" stroke="#320D57"/>
<path d="M379.75 63.46C380.157 62.6067 380.19 61.7933 379.85 61.02C379.703 60.6733 379.44 60.5 379.06 60.5H360.94C360.56 60.5 360.297 60.6733 360.15 61.02C359.797 61.8333 359.843 62.66 360.29 63.5" stroke="#320D57"/>
<path d="M539.96 63.75C540.193 62.81 540.16 61.9133 539.86 61.06C539.727 60.6867 539.463 60.5 539.07 60.5H520.94C520.56 60.5 520.297 60.6733 520.15 61.02C519.797 61.8333 519.843 62.66 520.29 63.5" stroke="#320D57"/>
<path d="M419.71 83.25C420.19 82.4567 420.243 81.68 419.87 80.92C419.737 80.64 419.513 80.5 419.2 80.5H400.79C400.463 80.5 400.24 80.65 400.12 80.95C399.773 81.7967 399.83 82.6467 400.29 83.5" stroke="#320D57"/>
<path d="M459.71 83.5C460.157 82.6333 460.203 81.8033 459.85 81.01C459.697 80.67 459.433 80.5 459.06 80.5H440.79C440.463 80.5 440.24 80.65 440.12 80.95C439.773 81.7967 439.83 82.6467 440.29 83.5" stroke="#320D57"/>
<path d="M519.71 83.25C520.197 82.4567 520.25 81.6767 519.87 80.91C519.73 80.6367 519.507 80.5 519.2 80.5H480.79C480.47 80.5 480.247 80.6467 480.12 80.94C479.767 81.7933 479.823 82.6467 480.29 83.5" stroke="#320D57"/>
<path d="M599.71 83.25C600.197 82.4567 600.25 81.6767 599.87 80.91C599.73 80.6367 599.507 80.5 599.2 80.5H560.79C560.47 80.5 560.247 80.6467 560.12 80.94C559.767 81.7933 559.823 82.6467 560.29 83.5" stroke="#320D57"/>
<path d="M379.75 103.46C380.084 102.653 380.124 101.823 379.87 100.97C379.784 100.657 379.577 100.5 379.25 100.5H360.94C360.56 100.5 360.294 100.677 360.14 101.03C359.8 101.837 359.85 102.66 360.29 103.5" stroke="#320D57"/>
<path d="M499.71 123.5C500.157 122.633 500.203 121.803 499.85 121.01C499.697 120.67 499.433 120.5 499.06 120.5H480.79C480.463 120.5 480.24 120.65 480.12 120.95C479.773 121.797 479.83 122.647 480.29 123.5" stroke="#320D57"/>
<path d="M619.71 183.25C620.19 182.457 620.243 181.68 619.87 180.92C619.737 180.64 619.513 180.5 619.2 180.5H600.79C600.463 180.5 600.24 180.65 600.12 180.95C599.773 181.797 599.83 182.647 600.29 183.5" stroke="#320D57"/>
<path d="M400 180.5L360.04 180.25" stroke="#320D57"/>
<path d="M400 180.5L399.98 183.58" stroke="#320D57"/>
<path d="M419.96 200.5H400.04" stroke="#320D57"/>
<path d="M219.75 200.71L200.04 200.81" stroke="#1A0034"/>
<path d="M359.96 220.5H340.04" stroke="#320D57"/>
<path d="M199.96 240.75H180.04" stroke="#1A0034"/>
<path d="M399.96 240.5H380.04" stroke="#320D57"/>
<path d="M459.96 240.5H440.04" stroke="#320D57"/>
<path d="M359.96 260.5H340.04" stroke="#320D57"/>
<path d="M159.71 280.5L140.04 280.75" stroke="#1A0034"/>
<path d="M259.71 280.5L240.04 280.8" stroke="#1A0034"/>
<path d="M529.96 280.5L510.97 280.49C510.59 280.483 510.32 280.653 510.16 281C509.8 281.773 509.83 282.593 510.25 283.46" stroke="#320D57"/>
<path d="M509.96 300.5H490.04" stroke="#320D57"/>
<path d="M489.96 283.75C490.254 282.757 490.224 281.853 489.87 281.04C489.71 280.68 489.434 280.5 489.04 280.5H470.94C470.56 280.5 470.297 280.673 470.15 281.02C469.81 281.82 469.844 282.633 470.25 283.46" stroke="#320D57"/>
<path d="M469.96 300.5H450.04" stroke="#320D57"/>
<path d="M99.7103 320.5C93.9103 320.767 88.1103 320.783 82.3103 320.55C80.1403 320.46 79.3303 321.29 80.0603 323.49" stroke="#1A0034"/>
<path d="M79.71 340.5L60.04 340.79" stroke="#1A0034"/>
<path d="M79.67 303.5C80.1367 302.727 80.17 301.9 79.77 301.02C79.63 300.713 79.39 300.563 79.05 300.57L60.04 300.82" stroke="#1A0034"/>
<path d="M229.71 300.5L210.03 300.81" stroke="#1A0034"/>
<path d="M429.96 300.5H410.04" stroke="#320D57"/>
<path d="M199.75 340.71L180.04 340.81" stroke="#1A0034"/>
<path d="M259.75 340.71L240.04 340.85" stroke="#1A0034"/>
<path d="M599.96 340.5L560.04 340.25" stroke="#320D57"/>
<path d="M219.75 200.71L200.04 200.81V180.99C200.04 180.663 200.207 180.5 200.54 180.5H219.27C219.355 180.5 219.439 180.517 219.517 180.549C219.596 180.581 219.667 180.629 219.726 180.688C219.786 180.748 219.833 180.818 219.864 180.896C219.896 180.973 219.911 181.056 219.91 181.14L219.75 200.71Z" fill="#1A0034"/>
<path d="M199.96 240.75H180.04V220.99C180.04 220.663 180.203 220.5 180.53 220.5H199.26C199.454 220.5 199.639 220.577 199.776 220.714C199.913 220.851 199.99 221.036 199.99 221.23L199.96 240.75Z" fill="#1A0034"/>
<path d="M159.71 280.5L140.04 280.75V260.99C140.04 260.663 140.203 260.5 140.53 260.5H159.49C159.593 260.5 159.692 260.539 159.766 260.61C159.841 260.681 159.885 260.777 159.89 260.88C160.17 267.433 160.11 273.973 159.71 280.5Z" fill="#1A0034"/>
<path d="M259.71 280.5L240.04 280.8V260.99C240.04 260.663 240.207 260.5 240.54 260.5H259.26C259.422 260.5 259.578 260.562 259.695 260.674C259.813 260.786 259.882 260.938 259.89 261.1C260.17 267.607 260.11 274.073 259.71 280.5Z" fill="#1A0034"/>
<path d="M99.71 320.5C93.91 320.767 88.11 320.783 82.31 320.55C80.14 320.46 79.33 321.29 80.06 323.49L79.71 340.5L60.04 340.79V320.99C60.04 320.663 60.2067 320.5 60.54 320.5H79.28C79.3649 320.5 79.449 320.483 79.5273 320.45C79.6056 320.416 79.6766 320.368 79.7362 320.306C79.7957 320.245 79.8426 320.172 79.8742 320.092C79.9058 320.012 79.9214 319.926 79.92 319.84L79.67 303.5C80.1367 302.727 80.17 301.9 79.77 301.02C79.63 300.713 79.39 300.563 79.05 300.57L60.04 300.82V280.99C60.04 280.663 60.2067 280.5 60.54 280.5H79.26C79.4616 280.5 79.6549 280.58 79.7974 280.723C79.94 280.865 80.02 281.058 80.02 281.26L79.95 300.01C79.95 300.337 80.1167 300.5 80.45 300.5H99.25C99.4147 300.5 99.5731 300.563 99.6923 300.677C99.8115 300.79 99.8823 300.945 99.89 301.11C100.17 307.603 100.11 314.067 99.71 320.5Z" fill="#1A0034"/>
<path d="M229.71 300.5L210.03 300.81L210.04 280.99C210.04 280.663 210.207 280.5 210.54 280.5H229.25C229.418 280.5 229.579 280.564 229.7 280.68C229.821 280.795 229.893 280.953 229.9 281.12C230.174 287.527 230.11 293.987 229.71 300.5Z" fill="#1A0034"/>
<path d="M199.75 340.71L180.04 340.81L180.05 320.99C180.05 320.663 180.213 320.5 180.54 320.5H199.27C199.697 320.5 199.91 320.713 199.91 321.14L199.75 340.71Z" fill="#1A0034"/>
<path d="M259.75 340.71L240.04 340.85V320.99C240.04 320.663 240.207 320.5 240.54 320.5H259.27C259.437 320.5 259.597 320.566 259.716 320.685C259.834 320.803 259.9 320.963 259.9 321.13L259.75 340.71Z" fill="#1A0034"/>
<path d="M400 180.5L360.04 180.25L360.05 161.17C360.05 160.723 360.273 160.5 360.72 160.5H399.01C399.273 160.5 399.524 160.603 399.71 160.787C399.896 160.971 400 161.22 400 161.48V180.5Z" fill="#320D57"/>
<path d="M400 180.5L419.31 180.57C419.717 180.57 419.923 180.773 419.93 181.18L419.96 200.5H400.04L399.98 183.58L400 180.5Z" fill="#320D57"/>
<path d="M359.96 220.5H340.04V200.99C340.04 200.663 340.207 200.5 340.54 200.5H359.49C359.623 200.5 359.75 200.553 359.844 200.646C359.937 200.74 359.99 200.867 359.99 201L359.96 220.5Z" fill="#320D57"/>
<path d="M399.96 240.5H380.04V220.99C380.04 220.663 380.207 220.5 380.54 220.5H399.49C399.623 220.5 399.75 220.553 399.844 220.646C399.937 220.74 399.99 220.867 399.99 221L399.96 240.5Z" fill="#320D57"/>
<path d="M459.96 240.5H440.04L440.05 220.99C440.05 220.663 440.213 220.5 440.54 220.5H459.48C459.807 220.5 459.97 220.663 459.97 220.99L459.96 240.5Z" fill="#320D57"/>
<path d="M359.96 260.5H340.04V240.99C340.04 240.663 340.207 240.5 340.54 240.5H359.49C359.623 240.5 359.75 240.553 359.844 240.646C359.937 240.74 359.99 240.867 359.99 241L359.96 260.5Z" fill="#320D57"/>
<path d="M529.96 280.5L510.97 280.49C510.59 280.483 510.32 280.653 510.16 281C509.8 281.773 509.83 282.593 510.25 283.46L509.96 300.5H490.04L489.96 283.75C490.253 282.757 490.223 281.853 489.87 281.04C489.71 280.68 489.433 280.5 489.04 280.5H470.94C470.56 280.5 470.297 280.673 470.15 281.02C469.81 281.82 469.843 282.633 470.25 283.46L469.96 300.5H450.04L450.02 280.99C450.02 280.663 450.183 280.5 450.51 280.5H469.5C469.833 280.5 470 280.333 470 280V261C470 260.867 470.053 260.74 470.146 260.646C470.24 260.553 470.367 260.5 470.5 260.5H489.5C489.833 260.5 490 260.667 490 261V280C490 280.333 490.167 280.5 490.5 280.5H509.5C509.833 280.5 510 280.333 510 280V261C510 260.667 510.167 260.5 510.5 260.5H529.48C529.807 260.5 529.97 260.663 529.97 260.99L529.96 280.5Z" fill="#320D57"/>
<path d="M429.96 300.5H410.04L410.02 280.99C410.02 280.663 410.187 280.5 410.52 280.5H429.48C429.813 280.5 429.98 280.663 429.98 280.99L429.96 300.5Z" fill="#320D57"/>
<path d="M599.96 340.5L560.04 340.25L560.05 321.16C560.05 320.72 560.273 320.5 560.72 320.5H599.5C599.63 320.5 599.755 320.552 599.847 320.644C599.938 320.735 599.99 320.86 599.99 320.99L599.96 340.5Z" fill="#320D57"/>
<path d="M159.65 23.52L140.29 23.5C139.77 22.52 139.8 21.6367 140.38 20.85C140.547 20.6167 140.777 20.5 141.07 20.5H159.06C159.44 20.5 159.703 20.6733 159.85 21.02C160.223 21.8867 160.157 22.72 159.65 23.52Z" fill="#00FFD1"/>
<path d="M499.71 23.5H480.29C479.843 22.66 479.797 21.8333 480.15 21.02C480.297 20.6733 480.56 20.5 480.94 20.5H499.21C499.53 20.5 499.753 20.6467 499.88 20.94C500.227 21.7667 500.17 22.62 499.71 23.5Z" fill="#00FFD1"/>
<path d="M579.71 23.5H560.29C559.843 22.66 559.797 21.8333 560.15 21.02C560.297 20.6733 560.56 20.5 560.94 20.5H579.21C579.53 20.5 579.753 20.6467 579.88 20.94C580.227 21.7667 580.17 22.62 579.71 23.5Z" fill="#00FFD1"/>
<path d="M119.67 43.51L100.32 43.47C99.7669 42.57 99.7803 41.7033 100.36 40.87C100.534 40.6233 100.767 40.5 101.06 40.5H118.77C119.08 40.499 119.378 40.6148 119.606 40.8242C119.834 41.0337 119.975 41.3214 120 41.63C120.06 42.3833 119.95 43.01 119.67 43.51Z" fill="#00FFD1"/>
<path d="M219.71 43.5H180.29C179.85 42.6333 179.843 41.78 180.27 40.94C180.417 40.6467 180.657 40.5 180.99 40.5H219.05C219.41 40.5 219.67 40.6633 219.83 40.99C220.223 41.7967 220.183 42.6333 219.71 43.5Z" fill="#00FFD1"/>
<path d="M459.96 43.75L400.29 43.5C399.817 42.6467 399.764 41.7933 400.13 40.94C400.25 40.6467 400.47 40.5 400.79 40.5H459.04C459.427 40.5 459.7 40.6767 459.86 41.03C460.234 41.8367 460.267 42.7433 459.96 43.75Z" fill="#00FFD1"/>
<path d="M59.6599 63.52L40.2899 63.5C39.7699 62.52 39.7966 61.6367 40.3699 60.85C40.5433 60.6167 40.7766 60.5 41.0699 60.5H58.5299C58.7757 60.5 59.0166 60.5649 59.2276 60.688C59.4386 60.8111 59.612 60.9879 59.7299 61.2C60.1699 61.98 60.1466 62.7533 59.6599 63.52Z" fill="#00FFD1"/>
<path d="M99.6403 63.43L80.1803 63.46C79.7736 62.58 79.8269 61.7267 80.3403 60.9C80.5003 60.6333 80.737 60.5 81.0503 60.5H99.2703C99.6236 60.5 99.8436 60.67 99.9303 61.01C100.17 61.9367 100.074 62.7433 99.6403 63.43Z" fill="#00FFD1"/>
<path d="M379.75 63.46L360.29 63.5C359.843 62.66 359.797 61.8333 360.15 61.02C360.297 60.6733 360.56 60.5 360.94 60.5H379.06C379.44 60.5 379.703 60.6733 379.85 61.02C380.19 61.7933 380.157 62.6067 379.75 63.46Z" fill="#00FFD1"/>
<path d="M539.96 63.75L520.29 63.5C519.843 62.66 519.797 61.8333 520.15 61.02C520.297 60.6733 520.56 60.5 520.94 60.5H539.07C539.463 60.5 539.727 60.6867 539.86 61.06C540.16 61.9133 540.193 62.81 539.96 63.75Z" fill="#00FFD1"/>
<path d="M39.7101 83.5H20.2901C19.7701 82.52 19.8001 81.6367 20.3801 80.85C20.5468 80.6167 20.7768 80.5 21.0701 80.5H39.2601C39.5934 80.5 39.8101 80.66 39.9101 80.98C40.1834 81.8467 40.1168 82.6867 39.7101 83.5Z" fill="#00FFD1"/>
<path d="M159.67 83.53C140.31 83.47 121.087 83.46 102 83.5C99.8999 83.5 99.6099 82.57 100.03 80.67L159.03 80.54C159.377 80.5333 159.62 80.6867 159.76 81C160.167 81.88 160.137 82.7233 159.67 83.53Z" fill="#00FFD1"/>
<path d="M419.71 83.25L400.29 83.5C399.83 82.6467 399.773 81.7967 400.12 80.95C400.24 80.65 400.463 80.5 400.79 80.5H419.2C419.513 80.5 419.737 80.64 419.87 80.92C420.243 81.68 420.19 82.4567 419.71 83.25Z" fill="#00FFD1"/>
<path d="M459.71 83.5H440.29C439.83 82.6467 439.773 81.7967 440.12 80.95C440.24 80.65 440.463 80.5 440.79 80.5H459.06C459.433 80.5 459.697 80.67 459.85 81.01C460.203 81.8033 460.157 82.6333 459.71 83.5Z" fill="#00FFD1"/>
<path d="M519.71 83.25L480.29 83.5C479.823 82.6467 479.767 81.7933 480.12 80.94C480.247 80.6467 480.47 80.5 480.79 80.5H519.2C519.507 80.5 519.73 80.6367 519.87 80.91C520.25 81.6767 520.197 82.4567 519.71 83.25Z" fill="#00FFD1"/>
<path d="M599.71 83.25L560.29 83.5C559.823 82.6467 559.767 81.7933 560.12 80.94C560.247 80.6467 560.47 80.5 560.79 80.5H599.2C599.507 80.5 599.73 80.6367 599.87 80.91C600.25 81.6767 600.197 82.4567 599.71 83.25Z" fill="#00FFD1"/>
<path d="M219.65 103.51L200.25 103.46C199.77 102.493 199.81 101.623 200.37 100.85C200.544 100.617 200.777 100.5 201.07 100.5H219.06C219.44 100.5 219.704 100.673 219.85 101.02C220.224 101.887 220.157 102.717 219.65 103.51Z" fill="#00FFD1"/>
<path d="M279.65 103.51L260.25 103.46C259.823 102.547 259.853 101.71 260.34 100.95C260.54 100.65 260.82 100.5 261.18 100.5H279.06C279.44 100.5 279.703 100.673 279.85 101.02C280.223 101.887 280.157 102.717 279.65 103.51Z" fill="#00FFD1"/>
<path d="M379.75 103.46L360.29 103.5C359.85 102.66 359.8 101.837 360.14 101.03C360.294 100.677 360.56 100.5 360.94 100.5H379.25C379.577 100.5 379.784 100.657 379.87 100.97C380.124 101.823 380.084 102.653 379.75 103.46Z" fill="#00FFD1"/>
<path d="M39.6603 123.51L20.3103 123.47C19.8103 122.603 19.8569 121.75 20.4503 120.91C20.6436 120.637 20.9069 120.5 21.2403 120.5H38.9403C39.2269 120.5 39.4569 120.62 39.6303 120.86C40.2236 121.687 40.2336 122.57 39.6603 123.51Z" fill="#00FFD1"/>
<path d="M119.71 123.5H100.29C99.8168 122.653 99.7768 121.82 100.17 121C100.323 120.667 100.583 120.5 100.95 120.5H119.26C119.593 120.5 119.81 120.66 119.91 120.98C120.183 121.847 120.117 122.687 119.71 123.5Z" fill="#00FFD1"/>
<path d="M499.71 123.5H480.29C479.83 122.647 479.773 121.797 480.12 120.95C480.24 120.65 480.463 120.5 480.79 120.5H499.06C499.433 120.5 499.697 120.67 499.85 121.01C500.203 121.803 500.157 122.633 499.71 123.5Z" fill="#00FFD1"/>
<path d="M99.7101 143.55L40.2501 143.46C39.8167 142.633 39.7867 141.813 40.1601 141C40.3201 140.667 40.5834 140.5 40.9501 140.5H99.2101C99.5367 140.5 99.7601 140.65 99.8801 140.95C100.233 141.837 100.177 142.703 99.7101 143.55Z" fill="#00FFD1"/>
<path d="M360.04 180.25L400 180.5L399.98 183.58C387.133 183.487 374.3 183.46 361.48 183.5C359.847 183.507 359.367 182.423 360.04 180.25Z" fill="#00FFD1"/>
<path d="M619.71 183.25L600.29 183.5C599.83 182.647 599.773 181.797 600.12 180.95C600.24 180.65 600.463 180.5 600.79 180.5H619.2C619.513 180.5 619.737 180.64 619.87 180.92C620.243 181.68 620.19 182.457 619.71 183.25Z" fill="#00FFD1"/>
<path d="M219.75 200.71C220.037 201.23 220.11 201.907 219.97 202.74C219.935 202.944 219.827 203.128 219.668 203.26C219.508 203.392 219.307 203.463 219.1 203.46L200.83 203.38C200.537 203.38 200.317 203.257 200.17 203.01C199.857 202.483 199.814 201.75 200.04 200.81L219.75 200.71Z" fill="#00FFD1"/>
<path d="M400.04 200.5H419.96C420.107 201.32 420.08 202.157 419.88 203.01C419.807 203.337 419.6 203.5 419.26 203.5H401.19C401.022 203.5 400.857 203.466 400.703 203.4C400.549 203.334 400.41 203.237 400.295 203.115C400.179 202.994 400.09 202.85 400.033 202.692C399.975 202.535 399.95 202.367 399.96 202.2L400.04 200.5Z" fill="#00FFD1"/>
<path d="M340.04 220.5H359.96C360.2 221.353 360.18 222.183 359.9 222.99C359.78 223.33 359.537 223.5 359.17 223.5C353.544 223.493 347.917 223.497 342.29 223.51C340.13 223.51 339.36 222.69 340.04 220.5Z" fill="#00FFD1"/>
<path d="M199.96 240.75C200.113 241.483 200.107 242.223 199.94 242.97C199.853 243.323 199.63 243.5 199.27 243.5H180.78C180.42 243.5 180.183 243.33 180.07 242.99C179.837 242.297 179.827 241.55 180.04 240.75H199.96Z" fill="#00FFD1"/>
<path d="M380.04 240.5H399.96C400.12 241.313 400.11 242.137 399.93 242.97C399.857 243.323 399.64 243.5 399.28 243.5H380.94C380.547 243.5 380.28 243.317 380.14 242.95C379.847 242.177 379.814 241.36 380.04 240.5Z" fill="#00FFD1"/>
<path d="M440.04 240.5H459.96C460.12 241.307 460.11 242.13 459.93 242.97C459.857 243.323 459.64 243.5 459.28 243.5C453.273 243.493 447.25 243.503 441.21 243.53C439.77 243.537 439.38 242.527 440.04 240.5Z" fill="#00FFD1"/>
<path d="M340.04 260.5H359.96C360.12 261.313 360.11 262.137 359.93 262.97C359.857 263.323 359.64 263.5 359.28 263.5H341.03C340.71 263.5 340.46 263.367 340.28 263.1C339.814 262.373 339.734 261.507 340.04 260.5Z" fill="#00FFD1"/>
<path d="M159.71 280.5C160.11 281.32 160.157 282.173 159.85 283.06C159.75 283.353 159.547 283.5 159.24 283.5H140.72C140.36 283.5 140.14 283.323 140.06 282.97C139.893 282.23 139.887 281.49 140.04 280.75L159.71 280.5Z" fill="#00FFD1"/>
<path d="M259.71 280.5C260.177 281.347 260.24 282.203 259.9 283.07C259.767 283.403 259.52 283.567 259.16 283.56C253.407 283.427 247.67 283.397 241.95 283.47C239.97 283.5 239.58 282.64 240.04 280.8L259.71 280.5Z" fill="#00FFD1"/>
<path d="M489.96 283.75L470.25 283.46C469.844 282.633 469.81 281.82 470.15 281.02C470.297 280.673 470.56 280.5 470.94 280.5H489.04C489.434 280.5 489.71 280.68 489.87 281.04C490.224 281.853 490.254 282.757 489.96 283.75Z" fill="#00FFD1"/>
<path d="M529.96 280.5C530.2 281.38 530.167 282.197 529.86 282.95C529.72 283.297 529.46 283.47 529.08 283.47L510.25 283.46C509.83 282.593 509.8 281.773 510.16 281C510.32 280.653 510.59 280.483 510.97 280.49L529.96 280.5Z" fill="#00FFD1"/>
<path d="M79.6703 303.5C75.0103 303.227 68.8703 303.227 61.2503 303.5C60.0037 303.547 59.6003 302.653 60.0403 300.82L79.0503 300.57C79.3903 300.563 79.6303 300.713 79.7703 301.02C80.1703 301.9 80.137 302.727 79.6703 303.5Z" fill="#00FFD1"/>
<path d="M229.71 300.5C230.11 301.327 230.167 302.173 229.88 303.04C229.773 303.347 229.557 303.5 229.23 303.5H211.06C210.66 303.5 210.377 303.317 210.21 302.95C209.937 302.33 209.877 301.617 210.03 300.81L229.71 300.5Z" fill="#00FFD1"/>
<path d="M410.04 300.5H429.96C430.193 301.367 430.157 302.193 429.85 302.98C429.717 303.32 429.467 303.49 429.1 303.49C423.5 303.503 417.9 303.507 412.3 303.5C410.16 303.49 409.37 302.68 410.04 300.5Z" fill="#00FFD1"/>
<path d="M450.04 300.5H469.96C470.193 301.367 470.157 302.193 469.85 302.98C469.717 303.32 469.467 303.49 469.1 303.49C463.5 303.503 457.9 303.507 452.3 303.5C450.16 303.49 449.37 302.68 450.04 300.5Z" fill="#00FFD1"/>
<path d="M490.04 300.5H509.96C510.107 301.313 510.08 302.14 509.88 302.98C509.807 303.32 509.597 303.49 509.25 303.49C503.61 303.51 497.957 303.51 492.29 303.49C490.15 303.49 489.37 302.68 490.04 300.5Z" fill="#00FFD1"/>
<path d="M99.7103 320.5C100.197 321.36 100.257 322.193 99.8903 323C99.7437 323.333 99.487 323.5 99.1203 323.5L80.0603 323.49C79.3303 321.29 80.1403 320.46 82.3103 320.55C88.1103 320.783 93.9103 320.767 99.7103 320.5Z" fill="#00FFD1"/>
<path d="M560.04 340.25L599.96 340.5C600.12 341.307 600.11 342.13 599.93 342.97C599.857 343.323 599.637 343.5 599.27 343.5C586.683 343.5 574.087 343.5 561.48 343.5C559.847 343.5 559.367 342.417 560.04 340.25Z" fill="#00FFD1"/>
<path d="M79.7101 340.5C80.1768 341.353 80.2401 342.207 79.9001 343.06C79.7668 343.393 79.5234 343.553 79.1701 343.54C73.4168 343.427 67.6768 343.413 61.9501 343.5C59.9701 343.53 59.5901 342.6 60.0401 340.79L79.7101 340.5Z" fill="#00FFD1"/>
<path d="M199.75 340.71C200.11 341.443 200.167 342.207 199.92 343C199.814 343.327 199.59 343.49 199.25 343.49C193.41 343.517 187.567 343.513 181.72 343.48C179.85 343.47 179.66 342.4 180.04 340.81L199.75 340.71Z" fill="#00FFD1"/>
<path d="M259.75 340.71C260.037 341.25 260.11 341.91 259.97 342.69C259.864 343.277 259.514 343.563 258.92 343.55C253.094 343.443 247.387 343.397 241.8 343.41C239.94 343.41 239.59 342.59 240.04 340.85L259.75 340.71Z" fill="#00FFD1"/>
</g>
<defs>
<clipPath id="clip0_183_5926">
<rect width="640" height="353" fill="white" transform="translate(0 0.5)"/>
</clipPath>
</defs>
</svg>
